<svg xmlns="http://www.w3.org/2000/svg" width="1400" height="1400" viewBox="0 0 1400 1400"><defs><style>.a{fill:#b2d5e8;}.b{fill:#771b24;}.c{fill:#7f202e;}.d{fill:#c2242f;}.e{fill:#7a5830;}.f{fill:#8c6c42;}.g{fill:#2d2424;}.h{fill:#f1875a;}.i{fill:#563618;}.j{fill:#696969;}.k{fill:none;}.l{fill:#353535;}.m{fill:#4e4d4d;}.n{fill:#908d8f;}.o{fill:#cdcccc;}.p{fill:#fff;}</style></defs><path class="a" d="M947,679.41c0,3.43-29.89,6.21-66.76,6.21s-66.76-2.78-66.76-6.21,29.89-6.2,66.76-6.2S947,676,947,679.41Z"/><path class="b" d="M921.85,625.53a12.27,12.27,0,0,1-1,4.64s-2.88,3.91-4.21,4.09v-22a4,4,0,0,0-.25-1.49s2.94-.82,4.28-1.2l.57-.16C921.65,616.08,921.89,622.13,921.85,625.53Z"/><path class="c" d="M921.29,609.46l-.57.16c-3.3-23.85-4.92-29.29-4.92-29.29-1.38-8.9-4.27-10.05-4.27-10.05s-7.28-3.7-14-7.32c-1.39-.74-2.66-1.38-3.84-1.91l0,0,0-.1.06-.11.09-.19a.54.54,0,0,0,.05-.11c.11-.22.2-.42.28-.61l0-.08c.13-.32.22-.58.29-.77a.24.24,0,0,1,0-.08c0-.09,0-.17.06-.21v0h0c3.81,1.72,17.25,7.9,19.38,10.42,2.5,2.95,4.65,5.44,5.21,10.77C919.61,583.32,920.64,597.36,921.29,609.46Z"/><path class="d" d="M920.72,609.62c-1.34.38-4.24,1.2-4.28,1.2a3,3,0,0,0-2.22-1.83H909l-1.68-.14c-.08-2.35,0-5.77,0-5.77a20.86,20.86,0,0,1,.82-4.75c-12,3.33-39.92.89-39.92.89-3.35-.78-3.9,1.67-3.9,1.67L863,609h-8.35l-1.56-16.55s.08-2,.07-4c-15.4,18.19-18.86,18.17-23.22,22.08a11.38,11.38,0,0,1-5.81,3,2.93,2.93,0,0,1-2.94-1.37,81.36,81.36,0,0,1-3.91-8.37c-4.81-15.79-4.36-48.29-4.36-48.29l.56.28a11.41,11.41,0,0,0,5.48.88h.15q.3,0,.6-.06l.15,0,.16,0h0l.27,0,.26,0h0l.25,0h.05l.47-.09.34-.08h.1l.16,0,.44-.12.18,0,.15-.05.15,0,.13,0,.34-.11.49-.18.22-.09c-.3,14.31,3.76,38,3.83,38.41h0l15.87-19.75c1.95-5,11.71-10.17,11.71-10.17l11.43-5.26s2,8.85,13.77,9.18c.34,0,.68,0,1,0h.3l.65,0,.21,0,.21,0,.24,0,.23,0,.2,0,.21,0,.28,0,.49-.09.16,0,.44-.1.16,0,.19,0,.19-.05.61-.18.24-.08h0l.25-.09.23-.09.25-.1.23-.09c.31-.14.61-.29.9-.44l.18-.1.06,0,.18-.11.53-.32.14-.1.5-.35.15-.12.16-.12.13-.1.11-.1a9.52,9.52,0,0,0,.8-.73l.11-.11.2-.21.1-.11a2,2,0,0,0,.19-.22l.19-.21.09-.12c.06-.07.11-.14.17-.2l.24-.33.15-.21.07-.1.14-.21.07-.11.06-.1c.07-.1.13-.2.19-.3l.11-.19h0l.1-.2,0-.05c1.18.53,2.45,1.17,3.84,1.91,6.74,3.62,14,7.32,14,7.32s2.89,1.15,4.27,10.05C915.8,580.33,917.42,585.77,920.72,609.62Z"/><path class="e" d="M895.92,537.32c-.14.66-.81,3.62-1.42,5.42a3.85,3.85,0,0,1-.64,1.37s-3.53,6.32-5.09,7.33a15.56,15.56,0,0,1-4.4,3.14c9.93-7.6,8.3-28.07,8.3-28.07a4.74,4.74,0,0,1,1.19,3.77,9.69,9.69,0,0,0-.28,2.75l.59,3.86A2,2,0,0,0,895.92,537.32Z"/><path class="f" d="M884.37,554.58c-6.88,3.13-11.51-3.14-11.51-3.14s-3.94-4.66-5.16-8.93a8.13,8.13,0,0,1-.36-1.12c-.38-1.39-.93-3.77-1.36-5.68a1.77,1.77,0,0,0,2.21-.22c-.18-.7.7-4.1.7-4.1l-.23-4.32c1.34-6.38,7.14-1.94,7.14-1.94,4.56,2.17,10.41,1.64,13.86.65a2.83,2.83,0,0,1,3,.73S894.3,547,884.37,554.58Z"/><path class="g" d="M898.58,529.49l-1.44,5.11s-.21.5-.42,1.13a12.23,12.23,0,0,0-.41,1.45,2.23,2.23,0,0,1-.35.13h0a2,2,0,0,1-1.75-.43l-.59-3.86a9.69,9.69,0,0,1,.28-2.75,4.74,4.74,0,0,0-1.19-3.77,2.83,2.83,0,0,0-3-.73c-3.45,1-9.3,1.52-13.86-.65,0,0-5.8-4.44-7.14,1.94l.23,4.32s-.88,3.4-.7,4.1a1.77,1.77,0,0,1-2.21.22c-.12-.56-.24-1.08-.34-1.52l-.3-1.42-1.05-6.4s-1.45-4.76,4.81-10a26.9,26.9,0,0,1,3.42-2.43s9.67-6.39,19.82,2a30.42,30.42,0,0,1,2.8,2.59C901.7,525.35,898.58,529.49,898.58,529.49Z"/><path class="f" d="M867.7,542.51s-.08.76-.93.38-1.86-1-2.77-6.14c0,0-.36-3.17,1.34-4l.3,1.42a4.64,4.64,0,0,0-.76,4.3c.67,2.85,2.14,3.19,2.46,2.9A8.13,8.13,0,0,0,867.7,542.51Z"/><path class="h" d="M867.34,541.39c-.32.29-1.79,0-2.46-2.9a4.64,4.64,0,0,1,.76-4.3c.1.44.22,1,.34,1.52C866.41,537.62,867,540,867.34,541.39Z"/><path class="i" d="M893,558.08s-.08.18-.26.49a.41.41,0,0,1-.05.09l-.12.2-.07.11-.08.12-.06.09v0l-.14.19s-.06.08-.09.13l-.09.13-.22.29-.11.14-.09.11c-3.39-1.25-5.85-1.32-7.92-.09-3.12,1.85-7.4.23-8.09-1.68s-3.22-3.85-3.22-3.85a7.62,7.62,0,0,0,.49-3.14s4.63,6.27,11.51,3.14a15.56,15.56,0,0,0,4.4-3.14S888.46,556.73,893,558.08Z"/><path class="f" d="M891.6,560.2c-.13.17-.28.34-.44.52l-.14.16-.16.16-.14.15c-.27.28-.57.56-.89.84l-.19.15c-.18.16-.38.31-.59.47l-.13.1a14.67,14.67,0,0,1-2,1.22l-.16.07h0l-.21.1-.35.15-.21.09-.66.24-.28.09h0l-.32.1-.32.09h-.06L884,565l-.44.1-.25,0-.17,0-.24,0-.12,0-.29,0-.24,0-.18,0-.27,0h-.13l-.35,0c-8.53.54-11.9-5.41-13.11-7.35a5.76,5.76,0,0,0,4.13-3.46s2.53,1.94,3.22,3.85,5,3.53,8.09,1.68C885.75,558.88,888.21,559,891.6,560.2Z"/><path class="j" d="M894.65,558.69h0v0s0,.12-.06.21a.24.24,0,0,0,0,.08c-.07.19-.16.45-.29.77l0,.08c-.08.19-.17.39-.28.61a.54.54,0,0,1-.05.11l-.09.19-.06.11,0,.1,0,0c-.72-.33-1.41-.61-2.07-.85l.09-.11.11-.14.22-.29.09-.13s.07-.09.09-.13l.14-.19v0l.06-.09.08-.12.07-.11.12-.2a.41.41,0,0,0,.05-.09c.18-.31.26-.49.26-.49l.65.16Z"/><path class="k" d="M893.67,561.05l0,.05-.1.2h0l-.11.19c-.06.1-.12.2-.19.3l-.06.1-.07.11-.14.21-.07.1-.15.21-.24.33c-.06.06-.11.13-.17.2l-.09.12-.19.21a2,2,0,0,1-.19.22l-.1.11-.2.21-.11.11a9.52,9.52,0,0,1-.8.73l-.11.1-.13.1-.16.12-.15.12-.5.35-.14.1-.53.32-.18.11-.06,0-.18.1c-.29.15-.59.3-.9.44l-.23.09-.25.1-.23.09-.25.09h0l-.24.08-.61.18-.19.05-.19,0-.16,0-.44.1-.16,0-.49.09-.28,0-.21,0-.2,0-.23,0-.24,0-.21,0-.21,0-.65,0h-.3c-.32,0-.66,0-1,0-11.75-.33-13.77-9.18-13.77-9.18l1.39-.65c1.21,1.94,4.58,7.89,13.11,7.35l.35,0h.13l.27,0,.18,0,.24,0,.29,0,.12,0,.24,0,.17,0,.25,0,.44-.1.23-.06h.06l.32-.09.32-.1h0l.28-.09.66-.24.21-.09.35-.15.21-.1h0l.16-.07a14.67,14.67,0,0,0,2-1.22l.13-.1c.21-.16.41-.31.59-.47l.19-.15c.32-.28.62-.56.89-.84l.14-.15.16-.16.14-.16c.16-.18.31-.35.44-.52C892.26,560.44,893,560.72,893.67,561.05Z"/><path class="f" d="M897.94,539.32s-.88,4.87-4.08,4.79a3.85,3.85,0,0,0,.64-1.37c.74.06,1.59,0,2.64-3.16s-.42-3.85-.42-3.85c.21-.63.42-1.13.42-1.13S899.06,535.08,897.94,539.32Z"/><path class="h" d="M897.14,539.58c-1,3.18-1.9,3.22-2.64,3.16.61-1.8,1.28-4.76,1.42-5.42h0a2.23,2.23,0,0,0,.35-.13,12.23,12.23,0,0,1,.41-1.45S898.18,536.41,897.14,539.58Z"/><path class="f" d="M865.93,677.34a27.65,27.65,0,0,0-.77-7.78l1.28.47,1.77,7.27Z"/><path class="l" d="M942.48,646.19c-.73,1.69-1.68,4.23-4.83,5.43L930.8,656l-22.44,9.35-2.43-1a.47.47,0,0,0-.16,0c-6-.43-8.09,2.51-8.09,2.51l-.53-.23v-.2c-1.64-1.55-9.64-7.51-9.64-7.51l-.49.42-5.44-3.05a19.07,19.07,0,0,1,3.95-3.09l13.18,6.11a1.46,1.46,0,0,1,1.71,0c1,.61,6.25,2.08,9.93.61s27.45-13,27.45-13,4.38-1.55,3.43-7.11l-.34-3.9,2,6.29A8.51,8.51,0,0,1,942.48,646.19Z"/><path class="l" d="M930.71,628.68c-4.13.09-13.86,6.44-14,6.54h0v-1c1.33-.18,4.21-4.09,4.21-4.09A25.63,25.63,0,0,1,930.71,628.68Z"/><path class="m" d="M937.8,647s-23.77,11.52-27.45,13-9,0-9.93-.61a1.46,1.46,0,0,0-1.71,0l-13.18-6.11c.66-.42,1.36-.85,2.05-1.26h0c3-1.8,6-3.28,6-3.28l23.11-13.46h0l14.81-6.46a11.62,11.62,0,0,1,4.68,1.58c4.7,3.1,4.7,5.6,4.7,5.6l.34,3.9C942.18,645.4,937.8,647,937.8,647Z"/><path class="m" d="M931.51,628.76l-14.81,6.46c.15-.1,9.88-6.45,14-6.54h0l.79.08Z"/><path class="l" d="M894.91,673.21c-.61,2.25-1.07,4.17-1.07,4.17l-.17.65-12.19-1.55-.49-.33,0,0a0,0,0,0,1,0,0c-2.37-1.44-8.6-3.9-14.53-6.1l-1.28-.47c-6.19-2.27-11.73-4.15-11.73-4.15l-21.19-8.83-4-2.37-6.16-4s-4.48-2.54-2.88-9.3a29.2,29.2,0,0,1,1.88-5.68,6.61,6.61,0,0,1-.37,3.78c.3,6.56,2.08,8.83,16.79,15.09s44.73,16.47,44.73,16.47l.31,1.32Z"/><path class="m" d="M897.15,666.45a40.74,40.74,0,0,0-2.24,6.76l-12.38-1.29-.31-1.32s-30-10.2-44.73-16.47S821,645.6,820.7,639a6.61,6.61,0,0,0,.37-3.78,10.65,10.65,0,0,1,2-3.2,12.12,12.12,0,0,1,5.86-3.08,21.34,21.34,0,0,1,5.64.53c1.88.66,10.34,5.75,10.34,5.75L868,648.68l6.14,3.44h0l7.45,4.19,5.44,3.05.49-.42S895.51,664.9,897.15,666.45Z"/><path class="d" d="M865.93,677.34a27.65,27.65,0,0,0-.77-7.78c-6.19-2.27-11.73-4.15-11.73-4.15a13.56,13.56,0,0,1-5.85.13s-1.1-.16-2.26-.29c0,0-6.34,2-6.24,8.08s5.79,7.58,7.55,7.83h0l1.59-.24s5-1.81,8.75-1.55a43.94,43.94,0,0,0,8.27-.48l.26-.3-.26-.17A1.74,1.74,0,0,0,865.93,677.34ZM848.58,679h-1.11a34.69,34.69,0,0,0-.1-3.94,22.39,22.39,0,0,0-1.31-6.34l1.26-.4c.88,2.18,1.26,7.18,1.26,7.18Zm3.4.11-1.22-.11v-3.59s-.22-4.47-1.27-6.59l1.17-.4a32.33,32.33,0,0,1,1.32,6.89A27.84,27.84,0,0,1,852,679.14Zm2.06-.38,0-3.36s-.19-4.62-1.43-6.76l1.18-.46a22.12,22.12,0,0,1,1.3,5.84c.11,2.72.11,4.74.11,4.74Zm4.49.17h-1.22v-3.55a35,35,0,0,0-1.23-6.8l1-.32a24.15,24.15,0,0,1,1.43,7C858.55,678.44,858.53,678.93,858.53,678.93Z"/><path class="k" d="M846.63,681.16l-4,.62s-8-.43-8.14-8.23,7.71-8.53,9.18-8.44c.48,0,1.06.08,1.62.14,0,0-6.34,2-6.24,8.08S844.87,680.91,846.63,681.16Z"/><path class="k" d="M847.32,668.35c.88,2.18,1.26,7.18,1.26,7.18V679h-1.11a34.69,34.69,0,0,0-.1-3.94,22.39,22.39,0,0,0-1.31-6.34Z"/><path class="k" d="M852,675.34a27.84,27.84,0,0,1,0,3.8l-1.22-.11v-3.59s-.22-4.47-1.27-6.59l1.17-.4A32.33,32.33,0,0,1,852,675.34Z"/><path class="k" d="M855.11,674c.11,2.72.11,4.74.11,4.74H854l0-3.36s-.19-4.62-1.43-6.76l1.18-.46A22.12,22.12,0,0,1,855.11,674Z"/><path class="k" d="M858.53,678.93h-1.22v-3.55a35,35,0,0,0-1.23-6.8l1-.32a24.15,24.15,0,0,1,1.43,7C858.55,678.44,858.53,678.93,858.53,678.93Z"/><path class="m" d="M881,676.13h0c0,.09-.12.32-1,.43L868.43,678l-.22-.69L866.44,670C872.37,672.23,878.6,674.69,881,676.13Z"/><path class="k" d="M881.48,676.48a.6.6,0,0,1-.49-.33Z"/><path class="n" d="M916.44,610.82a3,3,0,0,0-2.22-1.83H854.61s-1.83,0-5.76-.14-4,2.85-4,2.85l.07,19.54v4L868,648.68h25.59l23.11-13.46V612.31A4,4,0,0,0,916.44,610.82ZM880.8,632.89a4.06,4.06,0,1,1,4.06-4.06A4.06,4.06,0,0,1,880.8,632.89Z"/><path class="l" d="M844.91,631.24v4s-8.46-5.09-10.34-5.75a21.34,21.34,0,0,0-5.64-.53,19.64,19.64,0,0,1,11.65,1.17Z"/><path class="k" d="M876.74,628.83a4.06,4.06,0,1,1,4.06,4.06A4.06,4.06,0,0,1,876.74,628.83Z"/><path class="o" d="M893.58,648.68s-3,1.48-6,3.28h0l-13.45.16h0L868,648.68Z"/><path d="M887.58,652c-.69.41-1.39.84-2.05,1.26a19.07,19.07,0,0,0-3.95,3.09l-7.45-4.19Z"/><path class="d" d="M916.39,665.2h0a13.18,13.18,0,0,0-1.39.17c-5.08.86-6.63,0-6.63,0l-2.43-1a.47.47,0,0,0-.16,0c-6-.43-8.09,2.51-8.09,2.51l-.89.84-1.1,9.54c0,.6.87,1,.87,1l-.31.17.13.47,7.67.43c1.55.09,6.9.65,8.06,1.21a12.46,12.46,0,0,0,2.87.74c1.3.07,7.91-1.75,7.81-8S916.58,665.25,916.39,665.2Zm-11.86,13.64-1.24.08s-.36-6.41,1.41-10.65l1.07.45A25.73,25.73,0,0,0,904.53,678.84Zm3.24-.1-1.23,0s-.14-6.8,1.39-10.56l1.08.45A31.24,31.24,0,0,0,907.77,678.74ZM911,679l-1.24.08s-.13-7.23,1.41-10.65l1.07.45A25.73,25.73,0,0,0,911,679Zm3.47,0-1.24.08a28.31,28.31,0,0,1,1.41-10.65l1.07.45A25.73,25.73,0,0,0,914.51,679Z"/><path class="k" d="M905.77,668.72a25.73,25.73,0,0,0-1.24,10.12l-1.24.08s-.36-6.41,1.41-10.65Z"/><path class="k" d="M909,668.61a31.24,31.24,0,0,0-1.24,10.13l-1.23,0s-.14-6.8,1.39-10.56Z"/><path class="k" d="M912.28,668.83A25.73,25.73,0,0,0,911,679l-1.24.08s-.13-7.23,1.41-10.65Z"/><path class="k" d="M914.51,679l-1.24.08a28.31,28.31,0,0,1,1.41-10.65l1.07.45A25.73,25.73,0,0,0,914.51,679Z"/><path class="k" d="M920.72,681.39h-4.86s-.37,0-.88-.12c1.3.07,7.91-1.75,7.81-8s-6.21-8-6.4-8c4.72-.37,9.74,1.45,10.8,6.58C928.35,677.43,923.7,681.22,920.72,681.39Z"/><path class="k" d="M916.38,665.2h0"/><path class="k" d="M914.51,679l-1.24.08a28.31,28.31,0,0,1,1.41-10.65l1.07.45A25.73,25.73,0,0,0,914.51,679Z"/><path class="k" d="M911,679l-1.24.08s-.13-7.23,1.41-10.65l1.07.45A25.73,25.73,0,0,0,911,679Z"/><path class="k" d="M907.77,678.74l-1.23,0s-.14-6.8,1.39-10.56l1.08.45A31.24,31.24,0,0,0,907.77,678.74Z"/><path class="k" d="M904.53,678.84l-1.24.08s-.36-6.41,1.41-10.65l1.07.45A25.73,25.73,0,0,0,904.53,678.84Z"/><path class="k" d="M848.58,675.53V679h-1.11a34.69,34.69,0,0,0-.1-3.94,22.39,22.39,0,0,0-1.31-6.34l1.26-.4C848.2,670.53,848.58,675.53,848.58,675.53Z"/><path class="k" d="M852,679.14l-1.22-.11v-3.59s-.22-4.47-1.27-6.59l1.17-.4a32.33,32.33,0,0,1,1.32,6.89A27.84,27.84,0,0,1,852,679.14Z"/><path class="k" d="M854,678.76l0-3.36s-.19-4.62-1.43-6.76l1.18-.46a22.12,22.12,0,0,1,1.3,5.84c.11,2.72.11,4.74.11,4.74Z"/><path class="k" d="M858.53,678.93h-1.22v-3.55a35,35,0,0,0-1.23-6.8l1-.32a24.15,24.15,0,0,1,1.43,7C858.55,678.44,858.53,678.93,858.53,678.93Z"/><path class="k" d="M884.86,628.83a4.06,4.06,0,1,1-4.06-4.06A4.06,4.06,0,0,1,884.86,628.83Z"/><line class="k" x1="853.12" y1="588.41" x2="853.12" y2="588.41"/><path class="e" d="M826.87,542.48a9.88,9.88,0,0,1-2.17,4.28,4.56,4.56,0,0,0-1,3l0,5.76-.49.18s-.94-6.81,1-9.19,1.84-5.38,1.91-7.93a3.09,3.09,0,0,0-1.94-3.18,2.35,2.35,0,0,1,1,.3,3.15,3.15,0,0,1,.83.69h0a4.52,4.52,0,0,1,.82,1.45S826.88,541.75,826.87,542.48Z"/><path class="e" d="M822.71,540.13v.13a.88.88,0,0,1,0,.17l0,.1,0,.05s0,0,0,0a1.22,1.22,0,0,1-.34.44l0,0s0,0,0,0l-.09.07h0l0,0a3.4,3.4,0,0,0,0-2.34l.18.09.13,0,.18.06.14,0h0C822.65,539.47,822.72,539.81,822.71,540.13Z"/><path class="e" d="M817.09,539.73a1.64,1.64,0,0,1-.38.56,27.72,27.72,0,0,0-1.44-7.23,3.06,3.06,0,0,1,.52.06l1,4.3.16,2.05A2.55,2.55,0,0,0,817.09,539.73Z"/><path class="f" d="M818.71,541l-.17,0Z"/><path class="f" d="M826.17,538.61c-.07,2.55,0,5.56-1.91,7.93s-1,9.19-1,9.19l-.34.11-.13,0-.15,0-.15.05-.18,0-.44.12-.16,0h-.1l-.34.08-.47.09h-.05l-.25,0h0l-.26,0-.27,0h0l-.16,0-.15,0-.6.06h-.15a11.41,11.41,0,0,1-5.48-.88,68.36,68.36,0,0,0,0-8.36c-1.71-3.25-.59-8.73-.59-8.73a15,15,0,0,1,.31-4.43,1.92,1.92,0,0,1,2.11-1.16h0a27.72,27.72,0,0,1,1.44,7.23,1.64,1.64,0,0,0,.38-.56,295516605434.27,295516605434.27,0,0,0,.14.3,1,1,0,0,0,.1.17.41.41,0,0,0,0,.09l.06.08.12.16.06.07.09.09.07.07.05,0,.06,0,.06,0,0,0,0,0,.08,0h0c.64.35.38,2,.3,2.42a10.29,10.29,0,0,1,1.21-2.94h0c.19.64.65,1.43,1.76,1.07l.18-.06.1,0,.07,0,.12,0,.08,0,.07,0,0,0h0l0,0h0l.09-.07s0,0,0,0l0,0a1.22,1.22,0,0,0,.34-.44s0,0,0,0l0-.05,0-.1a.88.88,0,0,0,0-.17v-.13c0-.32-.06-.66,0-1h0l-.14,0-.18-.06-.13,0-.18-.09h0a2.64,2.64,0,0,1-.37-.2l-.09-.06a3,3,0,0,1-.4-.32l-.05,0-.06-.07,0,0,0,0-.06-.07-.06-.07-.11-.16-.06-.08-.05-.08,0-.09-.09-.18,0-.08a2.85,2.85,0,0,1-.16-.44l0-.11,0-.11,0-.13c-.58-2.88,1.47-2.25,1.47-2.25a5.29,5.29,0,0,0,.94.49c.72.33,1.58.66,1.58.66h0A3.09,3.09,0,0,1,826.17,538.61Z"/><path class="k" d="M822.68,539.13a4.28,4.28,0,0,0,1.23.18"/><path class="e" d="M826.05,536.42a3.15,3.15,0,0,0-.83-.69c1.39-12.91-.38-14.71-.42-14.75a2,2,0,0,1,.89,1.18C826.48,524.46,826.06,536.27,826.05,536.42Z"/><path class="f" d="M825.22,535.73a2.35,2.35,0,0,0-1-.3h0s-.86-.33-1.58-.66a16,16,0,0,1-.29-3.26c-.08-3.78.29-8.93.29-8.93a1.56,1.56,0,0,1,2.15-1.6h0S826.61,522.82,825.22,535.73Z"/><path class="e" d="M821.71,534.28a7.85,7.85,0,0,0-.31-3.19,2.93,2.93,0,0,1,1,.42,16,16,0,0,0,.29,3.26A5.29,5.29,0,0,1,821.71,534.28Z"/><path class="f" d="M822.05,541.23h0l0,0-.07,0-.08,0-.12,0-.07,0-.1,0-.18.06c-1.11.36-1.57-.43-1.76-1.07a3.2,3.2,0,0,1-.12-.71c.26-2.15-.56-7.39-.56-7.39a2.06,2.06,0,0,1,2.45-1.25,7.85,7.85,0,0,1,.31,3.19s-2.05-.63-1.47,2.25l0,.13,0,.11,0,.11a2.85,2.85,0,0,0,.16.44l0,.08.09.18,0,.09.05.08.06.08a.91.91,0,0,0,.11.16l.06.07.06.07,0,0,0,0,.06.07.05,0a3,3,0,0,0,.4.32l.09.06a2.64,2.64,0,0,0,.37.2h0A3.4,3.4,0,0,1,822.05,541.23Z"/><path class="k" d="M818.42,543.38l0,.11a4.67,4.67,0,0,0,.28,3"/><path class="f" d="M819.27,540.75l-.06,0a.1.1,0,0,1-.05,0l-.06,0-.09,0-.06,0-.13.05h-.05l-.06,0-.17,0h-.27l-.06,0-.09,0h0l-.08,0,0,0,0,0-.06,0-.06,0-.05,0-.07-.07-.09-.09-.06-.07-.12-.16-.06-.08a.41.41,0,0,1,0-.09,1,1,0,0,1-.1-.17,295516605434.27,295516605434.27,0,0,1-.14-.3,2.55,2.55,0,0,1-.1-.26l-.16-2.05-1-4.3a1.93,1.93,0,0,1,1.41-1.83,1.44,1.44,0,0,1,.88,0,7.61,7.61,0,0,1,.63,2.12A40,40,0,0,1,819.27,540.75Z"/><path class="k" d="M813.44,535.9a3.53,3.53,0,0,0,.77,2L815,540c.85.8,1.42.62,1.76.3"/><path class="k" d="M881,676.15h0"/><path class="f" d="M897.68,666.88l-.89.84-1.1,9.54-1.85.12s.46-1.92,1.07-4.17a40.74,40.74,0,0,1,2.24-6.76v.2Z"/><path class="p" d="M909,609l-1.68-.14c-.08-2.35,0-5.77,0-5.77Z"/><path class="b" d="M909,609H863l1.38-8.1s.55-2.45,3.9-1.67c0,0,27.88,2.44,39.92-.89a20.86,20.86,0,0,0-.82,4.75s-.08,3.42,0,5.77Z"/><path class="k" d="M921.38,609.44l-.09,0"/><path class="m" d="M931.51,628.76l-14.81,6.46c.15-.1,9.88-6.45,14-6.54h0a2.75,2.75,0,0,1,.79.08Z"/><path class="k" d="M895.14,518.49a13,13,0,0,1-2.47,8"/><path class="k" d="M871.08,523.63s-2.58-3.46-2-7.3"/><path class="k" d="M921.33,614.18c-.21-1.59-.41-3.11-.61-4.56"/><path class="k" d="M824.8,521h0"/><path class="k" d="M824.23,535.43h0"/><path class="k" d="M822.35,556s2.51,30.18,5.49,37.85"/><path class="k" d="M822.05,541.23h0"/><polyline class="k" points="822.05 538.89 822.05 538.89 822.05 538.89"/><path class="k" d="M818.71,533.42c.28,2.2.62,5.74.24,7.51"/><polyline class="k" points="815.27 533.06 815.27 533.06 815.27 533.05"/><path class="e" d="M818.42,543.38c.08-.45.34-2.07-.3-2.42l.09,0,.06,0h.27l.17,0,.06,0h.05l.13-.05.06,0,.09,0,.06,0a.1.1,0,0,0,.05,0l.06,0,.09-.07.09-.07,0,0,.15-.14A10.29,10.29,0,0,0,818.42,543.38Z"/><path class="k" d="M818,540.93l.08,0h0"/><path class="k" d="M818.39,543.49l0-.11"/><path class="e" d="M819.63,540.44h0l-.15.14,0,0-.09.07-.09.07a40,40,0,0,0-.56-7.33,7.61,7.61,0,0,0-.63-2.12,1.19,1.19,0,0,1,.37.21,1.78,1.78,0,0,1,.5.83s.82,5.24.56,7.39A3.2,3.2,0,0,0,819.63,540.44Z"/><path class="k" d="M818.08,531.3a.22.22,0,0,0,0-.07"/></svg>