<svg xmlns="http://www.w3.org/2000/svg" width="141.39" height="186.65" viewBox="0 0 141.39 186.65"><defs><style>.a{fill:#b2d5e8;}.b{fill:#771b24;}.c{fill:#7f202e;}.d{fill:#c2242f;}.e{fill:#7a5830;}.f{fill:#8c6c42;}.g{fill:#2d2424;}.h{fill:#f1875a;}.i{fill:#563618;}.j{fill:#696969;}.k{fill:none;}.l{fill:#353535;}.m{fill:#4e4d4d;}.n{fill:#908d8f;}.o{fill:#cdcccc;}.p{fill:#fff;}</style></defs><path class="a" d="M140,173c0,3.43-29.89,6.21-66.76,6.21S6.5,176.4,6.5,173s29.89-6.2,66.76-6.2S140,169.55,140,173Z"/><path class="b" d="M114.91,119.09a12.27,12.27,0,0,1-1,4.64s-2.88,3.91-4.2,4.09V105.87a4,4,0,0,0-.26-1.49s2.94-.82,4.28-1.2l.57-.16C114.71,109.65,115,115.69,114.91,119.09Z"/><path class="c" d="M114.35,103l-.57.16c-3.3-23.85-4.92-29.29-4.92-29.29-1.38-8.9-4.27-10-4.27-10s-7.28-3.7-14-7.32c-1.39-.74-2.66-1.38-3.83-1.91l0,0,0-.1.06-.11.09-.19.06-.11.27-.61a.59.59,0,0,1,0-.08c.13-.32.22-.58.28-.77,0,0,0-.05,0-.08a1.89,1.89,0,0,0,.06-.21v-.05h0C91.52,54,105,60.15,107.09,62.67c2.5,3,4.65,5.44,5.22,10.77C112.67,76.88,113.7,90.92,114.35,103Z"/><path class="d" d="M113.78,103.18c-1.34.38-4.24,1.2-4.28,1.2a3,3,0,0,0-2.21-1.83h-5.2l-1.69-.14c-.08-2.35,0-5.77,0-5.77a20.61,20.61,0,0,1,.83-4.75c-12,3.33-39.92.89-39.92.89C58,92,57.4,94.45,57.4,94.45L56,102.55H47.67L46.11,86s.08-2,.07-4C30.78,100.16,27.32,100.14,23,104.05a11.36,11.36,0,0,1-5.8,3,2.94,2.94,0,0,1-2.95-1.37,81.75,81.75,0,0,1-3.9-8.37C5.49,81.52,5.94,49,5.94,49l.56.28a11.41,11.41,0,0,0,5.48.88h.15a5.54,5.54,0,0,0,.6-.06h.15l.16,0h0l.26,0,.26,0h0l.26-.05h0l.47-.1.34-.08h.1l.16,0,.44-.12.18,0,.15,0,.15-.05.13,0,.34-.11.49-.18.22-.09c-.3,14.31,3.77,38,3.83,38.41h0L36.77,67.68c1.95-5,11.72-10.17,11.72-10.17l11.42-5.26s2,8.85,13.77,9.19c.34,0,.68,0,1,0H75l.65,0,.22,0,.2,0,.24,0,.23,0,.2,0,.21,0,.28,0,.49-.09.17,0,.43-.1.16,0,.19-.05.19,0,.61-.18.24-.08h0L80,60.5l.23-.09.25-.1.23-.09c.31-.14.61-.29.9-.44l.18-.1.06,0,.18-.11.53-.32a.71.71,0,0,0,.14-.1l.5-.35.15-.11.16-.13.13-.1.12-.1c.28-.24.55-.48.8-.73l.1-.11.21-.21.09-.11.2-.22.18-.21.09-.11.17-.21.24-.32.15-.22a.61.61,0,0,0,.07-.1c0-.07.1-.14.14-.21l.07-.11a.86.86,0,0,0,.07-.1l.18-.3.11-.19h0l.11-.19,0-.06c1.17.53,2.44,1.17,3.83,1.91,6.74,3.62,14,7.32,14,7.32s2.89,1.15,4.27,10C108.86,73.89,110.48,79.33,113.78,103.18Z"/><path class="e" d="M89,30.88c-.15.66-.82,3.62-1.43,5.42a3.85,3.85,0,0,1-.64,1.37S83.39,44,81.83,45a15.68,15.68,0,0,1-4.4,3.15c9.94-7.61,8.3-28.08,8.3-28.08a4.67,4.67,0,0,1,1.19,3.77,9.69,9.69,0,0,0-.28,2.75l.59,3.86A2,2,0,0,0,89,30.88Z"/><path class="f" d="M77.43,48.15C70.55,51.27,65.92,45,65.92,45S62,40.35,60.76,36.07A8.13,8.13,0,0,1,60.4,35c-.38-1.39-.93-3.77-1.35-5.68a1.75,1.75,0,0,0,2.2-.22A19.88,19.88,0,0,1,62,25l-.24-4.32c1.35-6.38,7.14-1.94,7.14-1.94,4.56,2.17,10.41,1.64,13.86.65a2.82,2.82,0,0,1,3,.73S87.37,40.54,77.43,48.15Z"/><path class="g" d="M91.64,23.05,90.2,28.16s-.21.5-.42,1.13a12.23,12.23,0,0,0-.41,1.45,1.81,1.81,0,0,1-.35.13h0a2,2,0,0,1-1.76-.43l-.59-3.86a9.69,9.69,0,0,1,.28-2.75,4.67,4.67,0,0,0-1.19-3.77,2.82,2.82,0,0,0-3-.73c-3.45,1-9.3,1.52-13.86-.65,0,0-5.79-4.44-7.14,1.94L62,25a19.88,19.88,0,0,0-.71,4.1,1.75,1.75,0,0,1-2.2.22c-.13-.56-.25-1.08-.34-1.52-.19-.86-.31-1.42-.31-1.42l-1-6.4s-1.44-4.76,4.81-10a26.9,26.9,0,0,1,3.42-2.43s9.67-6.39,19.82,2a32,32,0,0,1,2.81,2.59C94.76,18.91,91.64,23.05,91.64,23.05Z"/><path class="f" d="M60.76,36.07s-.08.76-.93.38-1.85-1-2.76-6.14c0,0-.37-3.17,1.33-4,0,0,.12.56.31,1.42a4.62,4.62,0,0,0-.77,4.3c.67,2.85,2.14,3.19,2.46,2.9A8.13,8.13,0,0,0,60.76,36.07Z"/><path class="h" d="M60.4,35c-.32.29-1.79-.05-2.46-2.9a4.62,4.62,0,0,1,.77-4.3c.09.44.21,1,.34,1.52C59.47,31.18,60,33.56,60.4,35Z"/><path class="i" d="M86.06,51.64s-.09.18-.26.49l-.06.09-.12.2-.07.11a.83.83,0,0,1-.08.12.41.41,0,0,1,0,.09l0,0c0,.06-.09.12-.13.19l-.1.13-.09.13-.22.29a1.34,1.34,0,0,1-.11.14l-.09.11c-3.39-1.25-5.84-1.32-7.92-.09-3.12,1.85-7.39.23-8.09-1.68s-3.22-3.84-3.22-3.84A7.67,7.67,0,0,0,65.92,45s4.63,6.27,11.51,3.15A15.68,15.68,0,0,0,81.83,45S81.52,50.29,86.06,51.64Z"/><path class="f" d="M84.66,53.76c-.13.17-.28.34-.44.52l-.14.16-.15.16-.15.15c-.27.28-.57.56-.89.84l-.18.15-.59.47a.71.71,0,0,0-.14.1,14.1,14.1,0,0,1-2,1.22l-.16.08h0l-.22.1-.35.15L79,58l-.66.24-.28.09h0l-.33.1-.31.09h-.07l-.22.06-.45.1-.24.05-.18,0-.24,0-.12,0-.29,0-.24,0-.18,0-.27,0h-.13l-.34,0c-8.54.54-11.9-5.41-13.11-7.34a5.79,5.79,0,0,0,4.12-3.46S68,50.08,68.65,52s5,3.53,8.09,1.68C78.82,52.44,81.27,52.51,84.66,53.76Z"/><path class="j" d="M87.71,52.25h0v.05a1.89,1.89,0,0,1-.06.21s0,0,0,.08c-.06.19-.15.45-.28.77a.59.59,0,0,0,0,.08l-.27.61-.06.11-.09.19-.06.11,0,.1,0,0c-.73-.33-1.42-.61-2.08-.85l.09-.11a1.34,1.34,0,0,0,.11-.14l.22-.29.09-.13.1-.13c0-.07.09-.13.13-.19l0,0a.41.41,0,0,0,0-.09.83.83,0,0,0,.08-.12l.07-.11.12-.2.06-.09c.17-.31.26-.49.26-.49.2.06.42.11.64.16Z"/><path class="k" d="M86.74,54.61l0,.06-.11.19h0l-.11.19-.18.3a.86.86,0,0,1-.07.1l-.07.11c0,.07-.09.14-.14.21a.61.61,0,0,1-.07.1l-.15.22-.24.32-.17.21-.09.11-.18.21-.2.22-.09.11-.21.21-.1.11c-.25.25-.52.49-.8.73l-.12.1-.13.1-.16.13-.15.11-.5.35a.71.71,0,0,1-.14.1l-.53.32-.18.11-.06,0-.18.1c-.29.15-.59.3-.9.44l-.23.09-.25.1L80,60.5l-.25.09h0l-.24.08-.61.18-.19,0-.19.05-.16,0-.43.1-.17,0-.49.09-.28,0-.21,0-.2,0-.23,0-.24,0-.2,0-.22,0-.65,0h-.3c-.32,0-.66,0-1,0-11.75-.34-13.77-9.19-13.77-9.19l1.4-.64c1.21,1.93,4.57,7.88,13.11,7.34l.34,0h.13l.27,0,.18,0,.24,0,.29,0,.12,0,.24,0,.18,0,.24-.05.45-.1.22-.06h.07l.31-.09.33-.1h0l.28-.09L79,58l.21-.09.35-.15.22-.1h0l.16-.08a14.1,14.1,0,0,0,2-1.22.71.71,0,0,1,.14-.1l.59-.47.18-.15c.32-.28.62-.56.89-.84l.15-.15.15-.16.14-.16c.16-.18.31-.35.44-.52C85.32,54,86,54.28,86.74,54.61Z"/><path class="f" d="M91,32.88s-.88,4.87-4.08,4.79a3.85,3.85,0,0,0,.64-1.37c.74.06,1.6,0,2.64-3.16s-.42-3.85-.42-3.85c.21-.63.42-1.13.42-1.13S92.12,28.64,91,32.88Z"/><path class="h" d="M90.2,33.14c-1,3.18-1.9,3.22-2.64,3.16.61-1.8,1.28-4.76,1.43-5.42h0a1.81,1.81,0,0,0,.35-.13,12.23,12.23,0,0,1,.41-1.45S91.24,30,90.2,33.14Z"/><path class="f" d="M59,170.9a27.65,27.65,0,0,0-.77-7.78l1.28.47,1.77,7.27Z"/><path class="l" d="M135.54,139.76c-.73,1.68-1.68,4.22-4.82,5.42l-6.85,4.4-22.45,9.35L99,158a.42.42,0,0,0-.16,0c-6-.43-8.09,2.51-8.09,2.51l-.53-.23V160c-1.63-1.55-9.64-7.51-9.64-7.51l-.49.42-5.44-3a19.35,19.35,0,0,1,4-3.09l13.18,6.11a1.48,1.48,0,0,1,1.72,0c1,.61,6.24,2.08,9.92.61s27.46-13,27.46-13,4.37-1.55,3.43-7.11l-.35-3.9,2,6.29A8.55,8.55,0,0,1,135.54,139.76Z"/><path class="l" d="M123.77,122.24c-4.12.09-13.86,6.44-14,6.54h0v-1c1.32-.18,4.2-4.09,4.2-4.09A25.68,25.68,0,0,1,123.77,122.24Z"/><path class="m" d="M130.87,140.51s-23.78,11.52-27.46,13-8.94,0-9.92-.61a1.48,1.48,0,0,0-1.72,0l-13.18-6.11c.67-.42,1.36-.85,2-1.26h0c3-1.79,6-3.28,6-3.28l23.12-13.46h0l14.81-6.46a11.56,11.56,0,0,1,4.68,1.58c4.7,3.1,4.7,5.6,4.7,5.6l.35,3.9C135.24,139,130.87,140.51,130.87,140.51Z"/><path class="m" d="M124.57,122.32l-14.81,6.46c.15-.1,9.89-6.45,14-6.54h0l.8.08Z"/><path class="l" d="M88,166.77c-.61,2.26-1.07,4.17-1.07,4.17l-.17.65L74.54,170c-.13-.1-.3-.21-.49-.33a.17.17,0,0,0,0-.05v0c-2.37-1.45-8.59-3.91-14.53-6.11l-1.28-.47C52,160.85,46.5,159,46.5,159l-21.2-8.83-4-2.37-6.16-4s-4.48-2.55-2.88-9.31a29.9,29.9,0,0,1,1.88-5.68,6.66,6.66,0,0,1-.37,3.79c.31,6.55,2.08,8.82,16.79,15.08s44.73,16.47,44.73,16.47l.31,1.32Z"/><path class="m" d="M90.21,160A41.07,41.07,0,0,0,88,166.77l-12.38-1.29-.31-1.32s-30-10.2-44.73-16.47-16.48-8.53-16.79-15.08a6.66,6.66,0,0,0,.37-3.79,10.72,10.72,0,0,1,2-3.19A12,12,0,0,1,22,122.55a20.88,20.88,0,0,1,5.64.53c1.88.65,10.34,5.74,10.34,5.74l23.09,13.42,6.14,3.44h0l7.45,4.19,5.44,3,.49-.42S88.58,158.46,90.21,160Z"/><path class="d" d="M59,170.9a27.65,27.65,0,0,0-.77-7.78C52,160.85,46.5,159,46.5,159a13.6,13.6,0,0,1-5.86.13s-1.1-.16-2.26-.29c0,0-6.34,2-6.24,8.08s5.8,7.58,7.55,7.83h0l1.59-.24s5-1.81,8.75-1.55a43.94,43.94,0,0,0,8.27-.48l.26-.3L58.3,172A1.69,1.69,0,0,0,59,170.9Zm-17.35,1.69H40.53a37.67,37.67,0,0,0-.09-3.94,22.11,22.11,0,0,0-1.32-6.34l1.26-.4c.88,2.18,1.26,7.18,1.26,7.18Zm3.4.11-1.22-.11V169s-.21-4.47-1.26-6.59l1.16-.4A32.33,32.33,0,0,1,45,168.9,27.84,27.84,0,0,1,45,172.7Zm2.06-.38,0-3.36s-.19-4.62-1.43-6.76l1.18-.46a22.12,22.12,0,0,1,1.3,5.84c.12,2.72.12,4.74.12,4.74Zm4.49.17H50.37v-3.55a34.7,34.7,0,0,0-1.22-6.8l1-.32a24.15,24.15,0,0,1,1.43,7C51.61,172,51.59,172.49,51.59,172.49Z"/><path class="k" d="M39.69,174.72l-4,.62s-8-.43-8.15-8.23,7.72-8.53,9.18-8.44c.48,0,1.06.08,1.62.14,0,0-6.34,2-6.24,8.08S37.94,174.47,39.69,174.72Z"/><path class="k" d="M40.38,161.91c.88,2.18,1.26,7.18,1.26,7.18v3.5H40.53a37.67,37.67,0,0,0-.09-3.94,22.11,22.11,0,0,0-1.32-6.34Z"/><path class="k" d="M45,168.9a27.84,27.84,0,0,1,0,3.8l-1.22-.11V169s-.21-4.47-1.26-6.59l1.16-.4A32.33,32.33,0,0,1,45,168.9Z"/><path class="k" d="M48.17,167.58c.12,2.72.12,4.74.12,4.74H47.1l0-3.36s-.19-4.62-1.43-6.76l1.18-.46A22.12,22.12,0,0,1,48.17,167.58Z"/><path class="k" d="M51.59,172.49H50.37v-3.55a34.7,34.7,0,0,0-1.22-6.8l1-.32a24.15,24.15,0,0,1,1.43,7C51.61,172,51.59,172.49,51.59,172.49Z"/><path class="m" d="M74,169.7h0c0,.09-.11.32-1,.43l-11.59,1.42-.22-.69-1.77-7.27C65.44,165.79,71.66,168.25,74,169.7Z"/><path class="k" d="M74.54,170a.6.6,0,0,1-.49-.33C74.24,169.83,74.41,169.94,74.54,170Z"/><path class="n" d="M109.5,104.38a3,3,0,0,0-2.21-1.83H47.67s-1.83,0-5.76-.14-4,2.85-4,2.85L38,124.8v4l23.09,13.42H86.64l23.12-13.46V105.87A4,4,0,0,0,109.5,104.38ZM73.86,126.45a4.06,4.06,0,1,1,4.06-4.06A4.06,4.06,0,0,1,73.86,126.45Z"/><path class="l" d="M38,124.8v4s-8.46-5.09-10.34-5.74a20.88,20.88,0,0,0-5.64-.53c2.84-.68,6.72-.72,11.65,1.16Z"/><path class="k" d="M69.8,122.39a4.06,4.06,0,1,1,4.06,4.06A4.06,4.06,0,0,1,69.8,122.39Z"/><path class="o" d="M86.64,142.24s-3,1.49-6,3.28h0l-13.45.16h0l-6.14-3.44Z"/><path d="M80.64,145.52c-.69.41-1.38.84-2,1.26a19.35,19.35,0,0,0-4,3.09l-7.45-4.19Z"/><path class="d" d="M109.45,158.76h0a12.57,12.57,0,0,0-1.39.17c-5.09.86-6.64,0-6.64,0L99,158a.42.42,0,0,0-.16,0c-6-.43-8.09,2.51-8.09,2.51l-.89.84-1.09,9.54c0,.6.86,1,.86,1l-.3.17.13.47,7.66.43c1.56.09,6.9.65,8.06,1.21a12.46,12.46,0,0,0,2.87.74c1.3.07,7.91-1.75,7.81-8.05S109.64,158.81,109.45,158.76ZM97.6,172.4l-1.24.08s-.37-6.41,1.4-10.65l1.08.45A25.51,25.51,0,0,0,97.6,172.4Zm3.23-.1-1.23,0s-.14-6.8,1.4-10.56l1.07.45A31.24,31.24,0,0,0,100.83,172.3Zm3.28.21-1.24.08s-.13-7.23,1.4-10.65l1.08.45A25.51,25.51,0,0,0,104.11,172.51Zm3.47,0-1.25.08a28.56,28.56,0,0,1,1.41-10.65l1.07.45A25.63,25.63,0,0,0,107.58,172.51Z"/><path class="k" d="M98.84,162.28A25.51,25.51,0,0,0,97.6,172.4l-1.24.08s-.37-6.41,1.4-10.65Z"/><path class="k" d="M102.07,162.17a31.24,31.24,0,0,0-1.24,10.13l-1.23,0s-.14-6.8,1.4-10.56Z"/><path class="k" d="M105.35,162.39a25.51,25.51,0,0,0-1.24,10.12l-1.24.08s-.13-7.23,1.4-10.65Z"/><path class="k" d="M107.58,172.51l-1.25.08a28.56,28.56,0,0,1,1.41-10.65l1.07.45A25.63,25.63,0,0,0,107.58,172.51Z"/><path class="k" d="M113.79,175h-4.87l-.88-.12c1.3.07,7.91-1.75,7.81-8.05s-6.21-8-6.4-8c4.72-.37,9.74,1.45,10.8,6.58C121.41,171,116.76,174.78,113.79,175Z"/><path class="k" d="M109.45,158.76h0"/><path class="k" d="M107.58,172.51l-1.25.08a28.56,28.56,0,0,1,1.41-10.65l1.07.45A25.63,25.63,0,0,0,107.58,172.51Z"/><path class="k" d="M104.11,172.51l-1.24.08s-.13-7.23,1.4-10.65l1.08.45A25.51,25.51,0,0,0,104.11,172.51Z"/><path class="k" d="M100.83,172.3l-1.23,0s-.14-6.8,1.4-10.56l1.07.45A31.24,31.24,0,0,0,100.83,172.3Z"/><path class="k" d="M97.6,172.4l-1.24.08s-.37-6.41,1.4-10.65l1.08.45A25.51,25.51,0,0,0,97.6,172.4Z"/><path class="k" d="M41.64,169.09v3.5H40.53a37.67,37.67,0,0,0-.09-3.94,22.11,22.11,0,0,0-1.32-6.34l1.26-.4C41.26,164.09,41.64,169.09,41.64,169.09Z"/><path class="k" d="M45,172.7l-1.22-.11V169s-.21-4.47-1.26-6.59l1.16-.4A32.33,32.33,0,0,1,45,168.9,27.84,27.84,0,0,1,45,172.7Z"/><path class="k" d="M47.1,172.32l0-3.36s-.19-4.62-1.43-6.76l1.18-.46a22.12,22.12,0,0,1,1.3,5.84c.12,2.72.12,4.74.12,4.74Z"/><path class="k" d="M51.59,172.49H50.37v-3.55a34.7,34.7,0,0,0-1.22-6.8l1-.32a24.15,24.15,0,0,1,1.43,7C51.61,172,51.59,172.49,51.59,172.49Z"/><path class="k" d="M77.92,122.39a4.06,4.06,0,1,1-4.06-4.06A4.06,4.06,0,0,1,77.92,122.39Z"/><line class="k" x1="46.18" y1="81.97" x2="46.18" y2="81.97"/><path class="e" d="M19.93,36a9.82,9.82,0,0,1-2.17,4.28,4.53,4.53,0,0,0-.94,3l0,5.76-.49.18s-.93-6.81,1-9.18,1.84-5.39,1.91-7.94A3.09,3.09,0,0,0,17.29,29a2.35,2.35,0,0,1,1,.3,3,3,0,0,1,.83.69h0a4.52,4.52,0,0,1,.82,1.45S19.94,35.31,19.93,36Z"/><path class="e" d="M15.77,33.69v.13l0,.17a.44.44,0,0,0,0,.1s0,0,0,0,0,0,0,0a1.22,1.22,0,0,1-.34.44l0,0s0,0-.05,0l-.09.07h0l0,0a3.36,3.36,0,0,0,0-2.33l.18.08.13.05.19.06.13,0h0C15.71,33,15.78,33.37,15.77,33.69Z"/><path class="e" d="M10.15,33.29a1.64,1.64,0,0,1-.38.56,27.72,27.72,0,0,0-1.44-7.23,2.88,2.88,0,0,1,.52.06L9.9,31,10.05,33A2.55,2.55,0,0,0,10.15,33.29Z"/><path class="f" d="M11.77,34.57l-.16,0Z"/><path class="f" d="M19.23,32.17c-.07,2.55,0,5.56-1.91,7.94s-1,9.18-1,9.18L16,49.4l-.13,0-.15.05-.15,0-.18,0L15,49.7l-.16,0h-.1l-.34.08-.47.1h0L13.6,50h0l-.26,0-.26,0h0l-.16,0h-.15l-.6.06H12A11.41,11.41,0,0,1,6.5,49.3a68.36,68.36,0,0,0,0-8.36c-1.71-3.25-.59-8.73-.59-8.73a14.77,14.77,0,0,1,.32-4.43,1.9,1.9,0,0,1,2.1-1.16h0a27.72,27.72,0,0,1,1.44,7.23,1.64,1.64,0,0,0,.38-.56,1,1,0,0,0,.07.15l.07.15a1,1,0,0,0,.1.17.41.41,0,0,0,0,.09l.06.08.12.16.06.07.09.1.07.06.06,0,0,0,.06,0,.05,0,0,0,.07,0h0c.64.35.38,2,.3,2.42A9.86,9.86,0,0,1,12.7,34h0a1.3,1.3,0,0,0,1.76,1.07l.17-.06.1,0,.07,0,.12,0,.08,0,.07,0,0,0h0l0,0h0l.09-.07s0,0,.05,0l0,0a1.22,1.22,0,0,0,.34-.44s0,0,0,0,0,0,0,0a.44.44,0,0,1,0-.1l0-.17v-.13c0-.32-.06-.66,0-1h0l-.13,0-.19-.06-.13-.05-.18-.08h0a3.35,3.35,0,0,1-.37-.2l-.09-.06a3,3,0,0,1-.4-.32l-.05,0-.06-.07,0,0,0,0L14,31.62s0-.05-.06-.07l-.12-.15a.41.41,0,0,1-.05-.09l-.06-.08a.41.41,0,0,0-.05-.09L13.59,31s0-.05,0-.08a4.5,4.5,0,0,1-.16-.44l0-.11,0-.11,0-.13c-.57-2.88,1.47-2.25,1.47-2.25a6.16,6.16,0,0,0,.94.49c.73.33,1.58.66,1.58.66h0A3.09,3.09,0,0,1,19.23,32.17Z"/><path class="k" d="M15.74,32.69a4.28,4.28,0,0,0,1.23.18"/><path class="e" d="M19.11,30a3,3,0,0,0-.83-.69c1.4-12.91-.38-14.71-.42-14.75a2,2,0,0,1,.9,1.18C19.54,18,19.12,29.83,19.11,30Z"/><path class="f" d="M18.28,29.29a2.35,2.35,0,0,0-1-.3h0s-.85-.33-1.58-.66a16.76,16.76,0,0,1-.29-3.26c-.08-3.78.3-8.93.3-8.93a1.56,1.56,0,0,1,2.14-1.6h0S19.68,16.38,18.28,29.29Z"/><path class="e" d="M14.77,27.84a7.85,7.85,0,0,0-.31-3.19,2.93,2.93,0,0,1,1,.42,16.76,16.76,0,0,0,.29,3.26A6.16,6.16,0,0,1,14.77,27.84Z"/><path class="f" d="M15.11,34.79h0l0,0-.07,0-.08,0-.12,0-.07,0-.1,0-.17.06A1.3,1.3,0,0,1,12.7,34a2.92,2.92,0,0,1-.13-.71c.26-2.15-.56-7.39-.56-7.39a2.07,2.07,0,0,1,2.45-1.25,7.85,7.85,0,0,1,.31,3.19s-2-.63-1.47,2.25l0,.13,0,.11,0,.11a4.5,4.5,0,0,0,.16.44.3.3,0,0,0,0,.08l.09.18a.41.41,0,0,1,.05.09l.06.08a.41.41,0,0,0,.05.09l.12.15s0,.05.06.07a.13.13,0,0,0,.06.07l0,0,0,0,.06.07.05,0a3,3,0,0,0,.4.32l.09.06a3.35,3.35,0,0,0,.37.2h0A3.36,3.36,0,0,1,15.11,34.79Z"/><path class="k" d="M11.48,36.94l0,.11a4.77,4.77,0,0,0,.28,3.06"/><path class="f" d="M12.34,34.31l-.06,0,0,0-.07,0-.08,0-.07,0-.13,0h-.05l-.06,0-.16,0h-.27l-.07,0-.09,0h0l-.07,0,0,0-.05,0-.06,0,0,0-.06,0-.07-.06-.09-.1-.06-.07-.12-.16-.06-.08a.41.41,0,0,1,0-.09,1,1,0,0,1-.1-.17l-.07-.15a1,1,0,0,1-.07-.15,2.55,2.55,0,0,1-.1-.26L9.9,31l-1.05-4.3a1.93,1.93,0,0,1,1.41-1.83,1.48,1.48,0,0,1,.89,0A8.21,8.21,0,0,1,11.77,27,38.87,38.87,0,0,1,12.34,34.31Z"/><path class="k" d="M6.5,29.46a3.53,3.53,0,0,0,.77,2L8,33.55c.86.8,1.43.62,1.76.3"/><path class="k" d="M74.05,169.71h0"/><path class="f" d="M90.74,160.44l-.89.84-1.09,9.54-1.86.12s.46-1.91,1.07-4.17A41.07,41.07,0,0,1,90.21,160v.2Z"/><path class="p" d="M102.09,102.55l-1.69-.14c-.08-2.35,0-5.77,0-5.77Z"/><path class="b" d="M102.09,102.55H56l1.37-8.1S58,92,61.31,92.78c0,0,27.88,2.44,39.92-.89a20.61,20.61,0,0,0-.83,4.75s-.08,3.42,0,5.77Z"/><path class="k" d="M114.44,103l-.09,0"/><path class="m" d="M124.57,122.32l-14.81,6.46c.15-.1,9.89-6.45,14-6.54h0a2.86,2.86,0,0,1,.8.08Z"/><path class="k" d="M88.21,12.05a13,13,0,0,1-2.48,8"/><path class="k" d="M64.15,17.19s-2.59-3.46-2-7.3"/><path class="k" d="M114.4,107.74c-.22-1.59-.42-3.11-.62-4.56"/><path class="k" d="M17.86,14.54h0"/><path class="k" d="M17.29,29h0"/><path class="k" d="M15.41,49.58s2.52,30.18,5.49,37.85"/><path class="k" d="M15.11,34.79h0"/><polyline class="k" points="15.11 32.45 15.11 32.45 15.11 32.45"/><path class="k" d="M11.77,27c.28,2.2.62,5.74.24,7.51"/><polyline class="k" points="8.33 26.62 8.33 26.62 8.33 26.61"/><path class="e" d="M11.48,36.94c.08-.45.34-2.07-.3-2.42l.09,0,.07,0h.27l.16,0,.06,0h.05l.13,0,.07,0,.08,0,.07,0,0,0,.06,0,.08-.06.09-.08,0,0L12.7,34A9.86,9.86,0,0,0,11.48,36.94Z"/><path class="k" d="M11.11,34.49l.07,0h0"/><path class="k" d="M11.45,37.05l0-.11"/><path class="e" d="M12.7,34h0l-.16.14,0,0-.09.08-.08.06A38.87,38.87,0,0,0,11.77,27a8.21,8.21,0,0,0-.62-2.12,1.26,1.26,0,0,1,.36.21,1.68,1.68,0,0,1,.5.83s.82,5.24.56,7.39A2.92,2.92,0,0,0,12.7,34Z"/><path class="k" d="M11.15,24.86l0-.07"/></svg>