<svg id="Layer_1" data-name="Layer 1" xmlns="http://www.w3.org/2000/svg" viewBox="0 0 450 450"><defs><style>.cls-1{fill:#282729;}.cls-2{fill:#d0d1d6;}.cls-3{fill:#6a676b;}.cls-4{fill:#4e4c4f;}.cls-5{fill:#fff;}.cls-6{fill:#302f30;}.cls-7{fill:#7aa343;}.cls-8{fill:#3b393b;}.cls-9{fill:#f8b81a;}.cls-10{fill:#b3b3b3;}.cls-11{fill:#787878;}.cls-12{fill:#50c0d8;}</style></defs><path class="cls-1" d="M144.62,197.7V119.57a5.17,5.17,0,0,1,5.17-5.17H265.35a5.16,5.16,0,0,1,5.17,5.17V197.7Z"/><rect class="cls-2" x="144.62" y="197.7" width="125.89" height="13.11"/><path class="cls-2" d="M270.52,119.57a5.16,5.16,0,0,0-5.17-5.17H149.79a5.17,5.17,0,0,0-5.17,5.17v6.15h125.9Z"/><rect class="cls-1" x="144.62" y="125.72" width="125.89" height="71.97"/><rect class="cls-1" x="253.15" y="202.25" width="4.63" height="4.64" rx="1.72"/><polygon class="cls-3" points="233.65 210.8 181.49 210.8 187 217.49 228.14 217.49 233.65 210.8"/><polygon class="cls-4" points="187 217.49 192.51 224.18 222.63 224.18 228.14 217.49 187 217.49"/><path class="cls-1" d="M180.45,227.2v-2.37c0-1.32,12.14-2.38,27.12-2.38s27.12,1.06,27.12,2.38v2.37Z"/><rect class="cls-1" x="196.27" y="203.24" width="22.61" height="2.81"/><rect class="cls-4" x="156.62" y="242.67" width="102.72" height="40.42" rx="4.56"/><path class="cls-5" d="M169.14,253.82H166a.92.92,0,0,1-.92-.91v-3.15a.92.92,0,0,1,.92-.92h3.15a.92.92,0,0,1,.91.92v3.15A.91.91,0,0,1,169.14,253.82Z"/><path class="cls-5" d="M177.17,253.82H174a.91.91,0,0,1-.91-.91v-3.15a.92.92,0,0,1,.91-.92h3.15a.92.92,0,0,1,.92.92v3.15A.92.92,0,0,1,177.17,253.82Z"/><path class="cls-5" d="M185.21,253.82h-3.15a.92.92,0,0,1-.92-.91v-3.15a.92.92,0,0,1,.92-.92h3.15a.92.92,0,0,1,.91.92v3.15A.91.91,0,0,1,185.21,253.82Z"/><path class="cls-5" d="M193.25,253.82h-3.16a.91.91,0,0,1-.91-.91v-3.15a.92.92,0,0,1,.91-.92h3.16a.92.92,0,0,1,.91.92v3.15A.91.91,0,0,1,193.25,253.82Z"/><path class="cls-5" d="M201.28,253.82h-3.15a.91.91,0,0,1-.91-.91v-3.15a.91.91,0,0,1,.91-.92h3.15a.91.91,0,0,1,.91.92v3.15A.91.91,0,0,1,201.28,253.82Z"/><path class="cls-5" d="M209.32,253.82h-3.16a.91.91,0,0,1-.91-.91v-3.15a.92.92,0,0,1,.91-.92h3.16a.92.92,0,0,1,.91.92v3.15A.91.91,0,0,1,209.32,253.82Z"/><rect class="cls-5" x="213.29" y="248.84" width="4.98" height="4.98" rx="0.91"/><path class="cls-5" d="M225.39,253.82h-3.16a.9.9,0,0,1-.9-.91v-3.15a.91.91,0,0,1,.9-.92h3.16a.91.91,0,0,1,.91.92v3.15A.91.91,0,0,1,225.39,253.82Z"/><path class="cls-5" d="M233.43,253.82h-3.16a.91.91,0,0,1-.91-.91v-3.15a.92.92,0,0,1,.91-.92h3.16a.92.92,0,0,1,.91.92v3.15A.91.91,0,0,1,233.43,253.82Z"/><path class="cls-5" d="M241.46,253.82h-3.15a.91.91,0,0,1-.91-.91v-3.15a.92.92,0,0,1,.91-.92h3.15a.91.91,0,0,1,.91.92v3.15A.91.91,0,0,1,241.46,253.82Z"/><path class="cls-5" d="M249.5,253.82h-3.16a.91.91,0,0,1-.91-.91v-3.15a.92.92,0,0,1,.91-.92h3.16a.92.92,0,0,1,.91.92v3.15A.91.91,0,0,1,249.5,253.82Z"/><rect class="cls-5" x="161.38" y="256.75" width="4.98" height="4.98" rx="0.91"/><rect class="cls-5" x="169.42" y="256.75" width="4.98" height="4.98" rx="0.91"/><rect class="cls-5" x="177.46" y="256.75" width="4.98" height="4.98" rx="0.91"/><rect class="cls-5" x="185.49" y="256.75" width="4.98" height="4.98" rx="0.91"/><rect class="cls-5" x="193.53" y="256.75" width="4.98" height="4.98" rx="0.91"/><rect class="cls-5" x="201.56" y="256.75" width="4.98" height="4.98" rx="0.91"/><rect class="cls-5" x="209.6" y="256.75" width="4.98" height="4.98" rx="0.91"/><rect class="cls-5" x="217.64" y="256.75" width="4.98" height="4.98" rx="0.91"/><rect class="cls-5" x="225.67" y="256.75" width="4.98" height="4.98" rx="0.91"/><rect class="cls-5" x="233.71" y="256.75" width="4.97" height="4.98" rx="0.91"/><rect class="cls-5" x="241.74" y="256.75" width="4.98" height="4.98" rx="0.91"/><rect class="cls-5" x="161.38" y="264.65" width="4.98" height="4.98" rx="0.91"/><rect class="cls-5" x="169.42" y="264.65" width="4.98" height="4.98" rx="0.91"/><rect class="cls-5" x="177.46" y="264.65" width="4.98" height="4.98" rx="0.91"/><rect class="cls-5" x="185.49" y="264.65" width="4.98" height="4.98" rx="0.91"/><rect class="cls-5" x="193.53" y="264.65" width="4.98" height="4.98" rx="0.91"/><rect class="cls-5" x="201.56" y="264.65" width="4.98" height="4.98" rx="0.91"/><path class="cls-5" d="M213.67,269.63h-3.16a.91.91,0,0,1-.91-.91v-3.16a.91.91,0,0,1,.91-.91h3.16a.91.91,0,0,1,.91.91v3.16A.91.91,0,0,1,213.67,269.63Z"/><rect class="cls-5" x="217.64" y="264.65" width="4.98" height="4.98" rx="0.91"/><rect class="cls-5" x="225.67" y="264.65" width="4.98" height="4.98" rx="0.91"/><rect class="cls-5" x="233.71" y="264.65" width="4.97" height="4.98" rx="0.91"/><path class="cls-5" d="M245.81,269.63h-3.16a.92.92,0,0,1-.91-.91v-3.16a.91.91,0,0,1,.91-.91h3.16a.91.91,0,0,1,.91.91v3.16A.91.91,0,0,1,245.81,269.63Z"/><path class="cls-5" d="M250.67,256.75h3.15a.92.92,0,0,1,.92.92v3.15a.91.91,0,0,1-.91.91h-3.16a.91.91,0,0,1-.91-.91v-3.15A.91.91,0,0,1,250.67,256.75Z"/><path class="cls-5" d="M253.82,269.63h-3.15a.92.92,0,0,1-.92-.91v-3.16a.92.92,0,0,1,.92-.91h3.15a.91.91,0,0,1,.92.91v3.16A.92.92,0,0,1,253.82,269.63Z"/><rect class="cls-5" x="165.07" y="272.55" width="4.98" height="4.98" rx="0.91"/><rect class="cls-5" x="173.11" y="272.55" width="4.98" height="4.98" rx="0.91"/><rect class="cls-5" x="181.14" y="272.55" width="4.98" height="4.98" rx="0.91"/><rect class="cls-5" x="189.18" y="272.55" width="21.39" height="4.98" rx="0.91"/><rect class="cls-5" x="213.29" y="272.55" width="4.98" height="4.98" rx="0.91"/><path class="cls-5" d="M225.39,277.53h-3.16a.9.9,0,0,1-.9-.91v-3.16a.9.9,0,0,1,.9-.91h3.16a.91.91,0,0,1,.91.91v3.16A.91.91,0,0,1,225.39,277.53Z"/><path class="cls-5" d="M233.43,277.53h-3.16a.91.91,0,0,1-.91-.91v-3.16a.91.91,0,0,1,.91-.91h3.16a.91.91,0,0,1,.91.91v3.16A.91.91,0,0,1,233.43,277.53Z"/><path class="cls-5" d="M241.46,277.53h-3.15a.91.91,0,0,1-.91-.91v-3.16a.91.91,0,0,1,.91-.91h3.15a.91.91,0,0,1,.91.91v3.16A.91.91,0,0,1,241.46,277.53Z"/><rect class="cls-5" x="245.43" y="272.55" width="4.98" height="4.98" rx="0.91"/><rect class="cls-4" x="204.33" y="240.54" width="6.84" height="2.13"/><path d="M303.48,260.27l-1,11.91a8.28,8.28,0,0,0,8.28,8.28h3.93a8.28,8.28,0,0,0,8.28-8.28l-1-11.91Z"/><path class="cls-6" d="M310.8,249.44c-4.58,0-7.11,3.71-7.11,8.28l-.21,2.55h9.28V249.44Z"/><path class="cls-6" d="M321.84,257.72c0-4.57-2.54-8.28-7.11-8.28h-2v10.83h9.29Z"/><path class="cls-2" d="M313.19,261.06h-.86c-.3,0-.55-.33-.55-.74v-6.46c0-.4.25-.73.55-.73h.86c.31,0,.55.33.55.73v6.46C313.74,260.73,313.5,261.06,313.19,261.06Z"/><rect class="cls-2" x="312.49" y="249.44" width="0.55" height="3.69"/><path class="cls-4" d="M335.46,229.8H292.25a4.25,4.25,0,0,1-4.25-4.25V126.91a4.25,4.25,0,0,1,4.25-4.25h43.21a4.25,4.25,0,0,1,4.25,4.25v98.64A4.25,4.25,0,0,1,335.46,229.8Z"/><path class="cls-6" d="M339.71,225.55V187.27c-4.17-8.67-14.17-14.78-25.86-14.78S292.17,178.6,288,187.27v38.28a4.25,4.25,0,0,0,4.25,4.25h43.21A4.25,4.25,0,0,0,339.71,225.55Z"/><rect class="cls-7" x="312.76" y="196.62" width="2.18" height="33.17"/><path class="cls-8" d="M313.85,197.45a5.85,5.85,0,0,1-5-3.25l-2.7-4.67a5.49,5.49,0,0,1,5-8.68h5.4a5.49,5.49,0,0,1,5,8.68l-2.7,4.67A5.85,5.85,0,0,1,313.85,197.45Z"/><path class="cls-9" d="M308.6,188.11l2.7,4.68c1.41,2.43,3.7,2.43,5.1,0l2.71-4.68c1.41-2.44.26-4.42-2.56-4.42h-5.4C308.34,183.69,307.19,185.67,308.6,188.11Z"/><rect class="cls-6" x="291.14" y="129.81" width="45.42" height="11.81"/><rect class="cls-6" x="291.14" y="143.43" width="45.42" height="11.81"/><rect class="cls-10" x="296.06" y="158.59" width="6.9" height="3.26"/><rect class="cls-11" x="296.06" y="158.59" width="6.9" height="1.2"/><rect class="cls-10" x="306.7" y="158.59" width="6.9" height="3.26"/><rect class="cls-11" x="306.7" y="158.59" width="6.9" height="1.2"/><path class="cls-6" d="M321,160.49a1.3,1.3,0,1,1-1.3-1.3A1.3,1.3,0,0,1,321,160.49Z"/><path class="cls-11" d="M319.66,161.51a1,1,0,1,1,1-1A1,1,0,0,1,319.66,161.51Z"/><path class="cls-6" d="M326,160.49a1.3,1.3,0,1,1-1.3-1.3A1.3,1.3,0,0,1,326,160.49Z"/><path class="cls-11" d="M324.71,161.51a1,1,0,1,1,1-1A1,1,0,0,1,324.71,161.51Z"/><path class="cls-12" d="M331.65,160.49a1,1,0,1,1-1-1A1,1,0,0,1,331.65,160.49Z"/><rect class="cls-4" x="330.63" y="145.45" width="4.2" height="1.95"/><rect class="cls-4" x="330.63" y="131.72" width="4.2" height="1.95"/><path d="M288,224.21v1.34a4.25,4.25,0,0,0,4.25,4.25h43.21a4.25,4.25,0,0,0,4.25-4.25v-1.34Z"/><path d="M208.52,240.68l-1.09-.28c.08-.3,2.07-7.48,16.38-7.48,3.07,0,6.86.34,10.88.69,14.73,1.31,33.06,2.93,38-9,.9-2.19,1.7-4.42,2.48-6.59,3.16-8.76,5.89-16.33,12.87-16.33v1.12c-6.19,0-8.79,7.23-11.81,15.6-.78,2.17-1.6,4.42-2.5,6.63-5.21,12.69-24,11-39.1,9.69-4-.35-7.76-.69-10.78-.69C210.36,234,208.53,240.61,208.52,240.68Z"/></svg>