<svg xmlns="http://www.w3.org/2000/svg" width="1400" height="1400" viewBox="0 0 1400 1400"><defs><style>.a{isolation:isolate;}.b,.o,.r{fill:none;}.b,.c,.d,.e,.f,.o,.p,.q,.s,.t{stroke:#1d1d1b;stroke-miterlimit:10;}.d,.u{fill:#1d1d1b;}.e{fill:#3b3b3b;}.f,.v{fill:#fff;}.g,.h,.k,.l,.p,.s{fill:#bc5417;}.h,.i,.j,.l{mix-blend-mode:multiply;}.i,.l{opacity:0.5;}.k{mix-blend-mode:screen;}.m{fill:#b1b1b1;}.n{fill:#040505;}.o,.p,.q{stroke-width:0.75px;}.t{fill:#070707;}</style></defs><g class="a"><path class="b" d="M659,403.74A60.79,60.79,0,0,0,648.12,416"/><path class="c" d="M633.08,427.68a15,15,0,0,0,5.55-.85A9.14,9.14,0,0,1,641,426h0c.15-.24.31-.48.47-.72.37-.57.75-1.13,1.14-1.7A29.06,29.06,0,0,1,633.08,427.68ZM613.8,645.78c-15.09,18.55-10.35,87.57,6.47,129.84s5.18,94.89,5.18,94.89a165.3,165.3,0,0,0,27.41,11,152.41,152.41,0,0,0,56.81,6c24.78-2.09,40.44-9.62,40.44-9.62a22.17,22.17,0,0,0,6.91-1.18c20.42-7,21.13-43.25,21.13-43.25,8.19-46.16-1.3-147.09-3.88-151.84s0-12.51,0-12.51h8.19L776,605.67c-5.61-29.77,3-104,3-104V452.12c-4.74-26.74-16.82-28.05-16.82-28.05l-8.16-.85-13.86-1.45c3,2.26,5.7,4.46,8.14,6.48,1.62,1.35,3.1,2.62,4.44,3.78l2,1.77,1.26,1.13.69.63c.7.63,1.3,1.19,1.81,1.66l.54.51,1.09,1,.09.09.13.12-6,11.31L769,457.2h0l.78.37V490l-1.8,5.26v0L760.18,518,753,514.24l-.11-.06-1.85-.95L684.3,474l-58.16,98.1h0l-3.21,5.75,26-1.18c18.5-.44,27.47-.27,31.53.09l8.21-3.4c11.92-13,18.91-11.92,28.79-15.06l.52-.16c9.53-2.89,14.3-.68,14.3-.68L729,559.2c-1.69,6.14-4.7,6-4.7,6-17,5.9-10.6,9.64-10.6,9.64,5.54,3.13,29.83,3.34,29.83,3.34l3.11-5.41s1.77,10.18,0,14.85c0,0-3.61,1.63-5.44,1a39.86,39.86,0,0,1,0,5.28,3.33,3.33,0,0,1-2.23,2.84s-1.42,7.32-5.08,7.52c0,0-.26,4-5.92,5.35l-21.9,38.46,0,.06-.36.62c-.05.1-.11.19-.16.28l-3.31,5.82-.08,0L672.37,639,634.94,619c-5.61,7.33-32.78,14.66-32.78,14.66Z"/><path class="d" d="M577.51,613.92H630.3L627.13,612l46.16-3.17,18.26-1.25,2.15.12c0-.25.07-.51.1-.78v0c0-.06,0-.11,0-.17a16.31,16.31,0,0,0-.15-4L681,602.24s-14.2-16.57.34-23.84h0c.3,0,3.16-.65,1.69-1.16a12.3,12.3,0,0,0-2.62-.42c-4.06-.36-13-.53-31.53-.09l-26,1.18h-.21l-29.17,1.33,25-74.12,18.93,46.71-11.31,20.3L684.3,474l-.42-.24L676,486.94l-13.63,21-27.41-24.34,6.71-19.86-19.29-2.51s.69-1.72,2-4.62l.38-.84c.6-1.32,1.31-2.84,2.12-4.53l.95-1.94c.65-1.33,1.36-2.75,2.13-4.23l.78-1.5.85-1.6c.53-1,1.08-2,1.66-3,2.29-4.13,4.91-8.55,7.81-13a9.14,9.14,0,0,0-2.39.88,15,15,0,0,1-5.55.85h0c-12.23,3.26-28.09,2.61-28.09,2.61s-8.68-2.17-11.57,5.79c0,0-25.3,49.16-31.81,156.15C561.6,592.23,557.27,613.92,577.51,613.92Z"/><polygon class="b" points="593.54 579.24 622.71 577.91 622.92 577.9 626.04 572.29 626.13 572.15 626.13 572.14 626.14 572.13 637.45 551.83 618.52 505.12 593.54 579.24"/><path class="e" d="M641.64,463.72l-6.71,19.86,27.41,24.34,13.63-21c-16-23.6-22.51-41.36-24-54.6-.11-1-.19-1.92-.25-2.84,0-.46-.05-.91-.06-1.36s0-.89,0-1.33c0-1.13,0-2.22.07-3.28,0-.83.11-1.64.21-2.42a32.56,32.56,0,0,1,6.77-16.94A106.14,106.14,0,0,0,648.12,416l0,.05a31.07,31.07,0,0,0-1.89,3.41,10.81,10.81,0,0,1-3.55,4.08c-.39.57-.77,1.13-1.14,1.7-.16.24-.32.48-.47.72h0c-2.9,4.41-5.52,8.83-7.81,13-.57,1-1.13,2-1.66,3l-.85,1.6c-1.06,2-2,3.95-2.91,5.73l-.95,1.94c-.81,1.69-1.52,3.21-2.12,4.53l-.38.84c-1.3,2.9-2,4.62-2,4.62Z"/><path class="b" d="M659,403.74c.64-.57,1.27-1.11,1.88-1.62l.3-.26c2.69-2.23,5-3.9,6.29-4.8l.47-.33.06,0h0l0,0,0,0,.16-.12.14-.09.12-.09-.56.25a4.9,4.9,0,0,0-.46.23A27.47,27.47,0,0,0,659,403.74Z"/><path class="b" d="M658.67,404.17c.74-.7,1.49-1.39,2.24-2.05-.61.51-1.24,1.05-1.88,1.62Z"/><path class="b" d="M642.64,423.53a10.81,10.81,0,0,0,3.55-4.08,31.07,31.07,0,0,1,1.89-3.41C646.18,418.49,644.36,421,642.64,423.53Z"/><path class="f" d="M652,432.34c1.5,13.24,8,31,24,54.6l7.91-13.15.42.24L751,513.23c0-.05,0-.11,0-.16a105.34,105.34,0,0,0-17.41-88.93c-1.2-1.56-1.93-2.37-1.93-2.37H720a38.69,38.69,0,0,1,3.89,2.82h0a43.48,43.48,0,0,1,5.57,5.38l.49.59a30.7,30.7,0,0,1,2.89,4.16c.13.22.26.45.38.68a22.49,22.49,0,0,1,1.28,2.82c0,.13.1.25.14.38s.17.51.25.76.12.38.17.57c.14.51.26,1,.36,1.54,0,.19.07.38.1.58a2.51,2.51,0,0,1,0,.27c0,.22.06.44.08.65s0,.38,0,.58a17.51,17.51,0,0,1-.45,5.38,16.59,16.59,0,0,1-.54,1.84c-.07.2-.15.41-.23.62-.16.42-.34.83-.53,1.25a25.86,25.86,0,0,1-1.8,3.19c-.28.43-.59.85-.92,1.29l-.5.66c-.34.43-.71.87-1.1,1.31s-.78.88-1.22,1.32c-.86.89-1.8,1.78-2.84,2.68q-.78.68-1.62,1.35l-.87.68S676.48,482,652.63,430.89Z"/><path class="f" d="M768,461.21s.22,32.72,0,34l1.8-5.26V457.58l-15.42-7.29,6-11.31-8.3,11.14Z"/><path class="e" d="M703.15,399.43a140.86,140.86,0,0,1,28.56,22.34s32.94,36.57,19.34,91.3c0,0,0,.11,0,.16l1.85.95.11.06,7.21,3.72,7.77-22.7s1-5.33,1-5.34c.21-1.3,0-32.71,0-32.71l-15.61-6.55,7-11.68a238.28,238.28,0,0,0-20.21-17.21C731.06,414.81,714.62,404.54,703.15,399.43Z"/><line class="b" x1="693.31" y1="606.93" x2="693.8" y2="606.95"/><path class="g" d="M1003.69,409.72s-1.15,16.31-15.52,17.52-4.67-17.52-4.67-17.52Z"/><path class="h" d="M1003.69,409.72s-1.15,16.31-15.52,17.52-4.67-17.52-4.67-17.52Z"/><path class="g" d="M994.69,401.93l.21-.13c1.53-.89,3-1.87,4.47-2.86.55-.37,1.11-.72,1.66-1.1l.68-.44c1-.64,1.41,0,1.69.79s.41,1.6.74,2.33a6.15,6.15,0,0,1,.41,1.11c.24,1-1.08,1.32-1.69,1.57l-.2.08a19.07,19.07,0,0,0-2.52,3.28c-.7,1.21-1.71,3.38,0,4.26a7.39,7.39,0,0,0,4.53.32,33.86,33.86,0,0,0,4.22-1.07l.26-.09c1.08-.52,2.15-1.06,3.2-1.64l.27-.15,0,0a12,12,0,0,0,2.56-2.76,5.81,5.81,0,0,0,.36-4c-.5-2.69-1.7-5.16-2.51-7.76a26.14,26.14,0,0,0-1.26-3.54,4.88,4.88,0,0,0-3.79-2.47,12.89,12.89,0,0,0-4.93.83c-1.82,3-7.49,4.74-9.34,7.72C992.81,397.72,995.58,400.4,994.69,401.93Z"/><g class="i"><path class="g" d="M994.69,401.93l.21-.13c1.53-.89,3-1.87,4.47-2.86.55-.37,1.11-.72,1.66-1.1l.68-.44c1-.64,1.41,0,1.69.79s.41,1.6.74,2.33a6.15,6.15,0,0,1,.41,1.11c.24,1-1.08,1.32-1.69,1.57l-.2.08a19.07,19.07,0,0,0-2.52,3.28c-.7,1.21-1.71,3.38,0,4.26a7.39,7.39,0,0,0,4.53.32,33.86,33.86,0,0,0,4.22-1.07l.26-.09c1.08-.52,2.15-1.06,3.2-1.64l.27-.15,0,0a12,12,0,0,0,2.56-2.76,5.81,5.81,0,0,0,.36-4c-.5-2.69-1.7-5.16-2.51-7.76a26.14,26.14,0,0,0-1.26-3.54,4.88,4.88,0,0,0-3.79-2.47,12.89,12.89,0,0,0-4.93.83c-1.82,3-7.49,4.74-9.34,7.72C992.81,397.72,995.58,400.4,994.69,401.93Z"/></g><g class="i"><path class="g" d="M994.69,401.93l.21-.13c1.53-.89,3-1.87,4.47-2.86.55-.37,1.11-.72,1.66-1.1l.68-.44c1-.64,1.41,0,1.69.79s.41,1.6.74,2.33a6.15,6.15,0,0,1,.41,1.11c.24,1-1.08,1.32-1.69,1.57l-.2.08a19.07,19.07,0,0,0-2.52,3.28c-.7,1.21-1.71,3.38,0,4.26a4.13,4.13,0,0,0,.85.32,4.08,4.08,0,0,1,1.73-1.6c1.84-1,3.73-1.83,5.58-2.75s4-2,6-3a.12.12,0,0,1,.18.07,3.6,3.6,0,0,1-.11,2.64,5,5,0,0,0,1.21-5.1c-.5-2.69-1.7-5.16-2.51-7.76a26.14,26.14,0,0,0-1.26-3.54,4.88,4.88,0,0,0-3.79-2.47,12.89,12.89,0,0,0-4.93.83c-1.82,3-7.49,4.74-9.34,7.72C992.81,397.72,995.58,400.4,994.69,401.93Z"/></g><path class="g" d="M1014.44,403.09l0,0a11.77,11.77,0,0,0,2.56-2.76,5.8,5.8,0,0,0,.36-4c-.5-2.68-1.7-5.16-2.51-7.75a26.32,26.32,0,0,0-1.27-3.55,4.86,4.86,0,0,0-3.78-2.46,12.88,12.88,0,0,0-4.93.82c-1.82,3-7.49,4.74-9.34,7.72-.92,1.5,1.85,4.18,1,5.7l.2-.12c1.54-.89,3-1.88,4.48-2.87l1.66-1.09.68-.44c1.05-.65,1.4,0,1.69.79s.41,1.6.74,2.32a6.25,6.25,0,0,1,.41,1.12c.24,1-1.08,1.32-1.69,1.57a25.48,25.48,0,0,0-4.63,2.27c-2.08,1.36-4.13,3.56-4.23,6.17s2.52,3.68,4.67,3c2.39-.81,4.65-1.94,6.94-3s4.55-2.08,6.74-3.29Z"/><g class="j"><path class="g" d="M1017.38,396.35c-.5-2.68-1.7-5.16-2.51-7.75a26.32,26.32,0,0,0-1.27-3.55,5.29,5.29,0,0,0-2.58-2.21,4.75,4.75,0,0,1,1.63,1.53,21.63,21.63,0,0,1,1.65,3.79c.5,1.25,1,2.5,1.49,3.78a15,15,0,0,1,1,7,7.69,7.69,0,0,1-.93,2.82,6.38,6.38,0,0,0,1.15-1.46A5.8,5.8,0,0,0,1017.38,396.35Z"/></g><path class="g" d="M1011.45,400.88l0,0a12,12,0,0,0,2.56-2.76,5.86,5.86,0,0,0,.36-4c-.5-2.68-1.7-5.16-2.51-7.75a26.32,26.32,0,0,0-1.27-3.55,4.86,4.86,0,0,0-3.78-2.46,12.84,12.84,0,0,0-4.93.82c-1.82,3-3.85,5.89-5.7,8.87-.93,1.49-1.79,3-2.68,4.55l.2-.12c1.53-.89,3-1.88,4.48-2.87.55-.37,1.11-.72,1.65-1.09.23-.15.45-.3.69-.44,1.05-.65,1.4,0,1.68.79s.42,1.6.75,2.32a5.53,5.53,0,0,1,.4,1.12c.25,1-1.07,1.32-1.68,1.57a25.57,25.57,0,0,0-4.64,2.27c-2.07,1.37-4.12,3.56-4.22,6.17s2.51,3.68,4.66,3c2.4-.81,4.65-1.94,7-3s4.55-2.07,6.74-3.29Z"/><path class="h" d="M1014.39,394.14c-.5-2.68-1.7-5.16-2.51-7.75a26.32,26.32,0,0,0-1.27-3.55,4.86,4.86,0,0,0-3.78-2.46,12.84,12.84,0,0,0-4.93.82l-.12.2c.51-.08,1-.14,1.53-.18,2.55-.17,5.25.31,6.7,2.62a31.2,31.2,0,0,1,1.77,3.85,35,35,0,0,1,1.71,4.32,9.3,9.3,0,0,1,.43,4.12,10.64,10.64,0,0,1-1.39,3.59c-.07.13-.16.27-.24.4a8.15,8.15,0,0,0,1.74-2A5.86,5.86,0,0,0,1014.39,394.14Z"/><path class="h" d="M996.24,403.5a34.41,34.41,0,0,1,6.66-6,24.09,24.09,0,0,1,3.79-2.38,13.14,13.14,0,0,1,2.41-.81,10.08,10.08,0,0,1-3.6-.11c-1.53-.46-1.27-2.68-1.62-3.92a3.81,3.81,0,0,1-.2-2.79,9.16,9.16,0,0,1,2.29-2.63c1.25-1.08,2.6-2,3.93-3a4.47,4.47,0,0,0-3.07-1.54,12.84,12.84,0,0,0-4.93.82c-1.82,3-3.85,5.89-5.7,8.87-.93,1.49-1.79,3-2.68,4.55l.2-.12c1.53-.89,3-1.88,4.48-2.87.55-.37,1.11-.72,1.65-1.09.23-.15.45-.3.69-.44,1.05-.65,1.4,0,1.68.79s.42,1.6.75,2.32a5.53,5.53,0,0,1,.4,1.12c.25,1-1.07,1.32-1.68,1.57a25.57,25.57,0,0,0-4.64,2.27c-2.07,1.37-4.12,3.56-4.22,6.17a2.82,2.82,0,0,0,1.27,2.56A11.92,11.92,0,0,1,996.24,403.5Z"/><path class="g" d="M1003.59,385.75c15.2-13.71,25.91-24.54,20.66-27.41-3.09-1.69-26.74,19.37-37,30.79s-14.52,27.05-14.52,27.05l-18.48,12.91c3,11.55,15.21,19.36,15.21,19.36l18-21.63a4.86,4.86,0,0,0,1-.11v.11a13,13,0,0,0,6.83-4.53l0,0h0c3.37-4.12,3.64-5.4,3.94-7.46s10.5-7.84,10.6-7.89c2.56-1.12,5.81-4.41,6.3-5.77,1.36-3.79,1.9-6.78-2.87-5.92a67.27,67.27,0,0,0-9.38,3.21c-1.84-.29-5.13-.87-6-1.41C996.63,396.24,1000.1,388.89,1003.59,385.75Z"/><path class="k" d="M980.63,401a79.23,79.23,0,0,1,5.73-8.44q3-3.93,6.31-7.57c5.23-5.67,11.16-10.6,16.83-15.82,2.79-2.55,5.6-5.06,8.5-7.49.64-.54,1.27-1.14,1.92-1.72-8.08,5.07-24.56,20.12-32.66,29.15-10.24,11.42-14.52,27.05-14.52,27.05l-18.48,12.91c.09.34.19.67.29,1,6.67-4.43,13.39-8.8,19.81-13.58A73.41,73.41,0,0,1,980.63,401Z"/><path class="l" d="M1013.33,395.21a67.27,67.27,0,0,0-9.38,3.21c-1.84-.29-5.13-.87-6-1.41l-.1-.09a1.54,1.54,0,0,0,.68,1,6.86,6.86,0,0,0,4.93.68c1.41-.25,2.73-.76,4.1-1.14a7.22,7.22,0,0,1,2.84-.35c2.16.3,2.54,2.75,1.95,4.54-.79,2.4-3.07,3.89-5.1,5.18-1.24.79-2.43,1.66-3.67,2.45-.81.51-1.62,1-2.44,1.49a12.21,12.21,0,0,0-2.15,1.4,21.21,21.21,0,0,0-2.52,3.75,18.55,18.55,0,0,1-3,3.41,13,13,0,0,1-6.68,3.28,19.51,19.51,0,0,1-7.78-.69c.56,1.92-.75,3.7-2.06,5-1.74,1.73-3.69,3.33-5.56,4.92-2.29,1.94-4.64,3.82-6.78,5.93A26.46,26.46,0,0,1,961,441a44.92,44.92,0,0,0,8.48,7.47l18-21.63a4.86,4.86,0,0,0,1-.11v.11a13,13,0,0,0,6.83-4.53l0,0h0c3.37-4.12,3.64-5.4,3.94-7.46s10.5-7.84,10.6-7.89c2.56-1.12,5.81-4.41,6.3-5.77C1017.56,397.34,1018.1,394.35,1013.33,395.21Z"/><path class="l" d="M1024.59,358.55a2.15,2.15,0,0,1,.24.81c.23,2.09-1,4.2-2.18,5.79a56,56,0,0,1-5,5.2c-2.66,2.72-5.17,5.58-7.87,8.25s-5.43,4.89-8,7.5a28.49,28.49,0,0,0-3.51,4,13.92,13.92,0,0,0-1.86,4.38A14.61,14.61,0,0,0,996,397c0,.49-.07.59.48.63a8.68,8.68,0,0,0,1,0,13.12,13.12,0,0,0,1.52-.18,5.33,5.33,0,0,1-1.12-.42c-1.28-.77,2.19-8.12,5.68-11.26C1018.44,372.36,1029,361.71,1024.59,358.55Z"/><path class="m" d="M622.71,577.91h.21l26-1.18c18.5-.44,27.47-.27,31.53.09l8.21-3.4c11.92-13,18.91-11.92,28.79-15.06l.52-.16c9.53-2.89,14.3-.68,14.3-.68L729,559.2c-1.69,6.14-4.7,6-4.7,6-17,5.9-10.6,9.64-10.6,9.64,5.54,3.13,29.83,3.34,29.83,3.34l3.11-5.41,26.51-46.24L753,514.24l-.11-.06-1.81-1.11-66-40.24-.71,1.2-58.16,98.1h0l-.09.14Z"/><path class="m" d="M672.48,638.52,702,654.36c.73-1.25,2.6-3.74,4.07-6.25,0-.09.11-.18.16-.28l.36-.62,21.93-38.52c-2.43-.11-26.85-1.5-34.29-1.92l-2.15-.12-65.54,7.71Z"/><path class="m" d="M728,609.65l-21.93,38.52c7.79-13.34,22.46-38.51,22.12-38.51Z"/><path d="M680.45,576.81a12.3,12.3,0,0,1,2.62.42l5.59-3.82Z"/><path class="g" d="M681,602.24l6.84,3.74a3.42,3.42,0,0,1,.71.61c.85.84,4.71-.55,5.18.15a.31.31,0,0,1,0,.17v0L727,608.61l1.53.08-.55,1c5.66-1.35,5.92-5.35,5.92-5.35,3.66-.2,5.08-7.52,5.08-7.52a3.33,3.33,0,0,0,2.23-2.84,39.86,39.86,0,0,0,0-5.28c1.83.61,5.44-1,5.44-1,1.77-4.67,0-14.85,0-14.85l-3.11,5.41s-24.29-.21-29.83-3.34c0,0-6.39-3.74,10.6-9.64,0,0,3,.12,4.7-6l3.25-1.69s-4.77-2.21-14.3.68l-.52.16c-9.88,3.14-16.87,2-28.79,15.06l-5.59,3.82-1.69,1.16h0C666.82,585.67,681,602.24,681,602.24Z"/><path class="n" d="M979.22,448.26s1.91-3.24-1.86-9.28l-5.76,6.92,7.62,2.36"/><path class="o" d="M709.67,887.47c.08-2.67.09-4.82,0-6.36"/><path class="o" d="M652.86,881.49l.14-.38"/><path class="p" d="M648.42,963.61c2.67,21.18,8.24,46,18.61,74,1,2.69,2,5.4,3.11,8.15,0,0,2.74,13.26,1.11,42.15-.25,4.54-.61,9.46-1.11,14.78l-2.8,42.13s7.14,22.57,26.26,5.3v-99.06s3.32-28.54,7-62.42c4.06-37.86,8.5-82.38,9.11-101.19a152.41,152.41,0,0,1-56.81-6C651.62,885.12,642.25,914.55,648.42,963.61Z"/><path class="p" d="M606.35,1126,667,1037.63c-10.37-28-15.94-52.84-18.61-74C641,1064.85,615.21,1064,615.21,1064l-2.62,15.75C603.73,1089.56,606.35,1126,606.35,1126Z"/><path class="o" d="M648.42,963.61q1-13.18,1.5-28.76"/><path class="p" d="M700.56,988.66c29.74-45.6,50.37-96.25,56.46-112a22.17,22.17,0,0,1-6.91,1.18s-15.66,7.53-40.44,9.62C709.06,906.28,704.62,950.8,700.56,988.66Z"/><path class="o" d="M758.89,871.74s-.64,1.75-1.87,4.93"/><path class="q" d="M660.45,1162.06c20.07,38.6,37.83,0,37.83,0l-4.68-74.13v62.21c-19.12,17.27-26.26-5.3-26.26-5.3l2.8-42.13c.5-5.32.86-10.24,1.11-14.78Z"/><path class="q" d="M596.36,1087.23c1.93,3.4-2.7,23.48-11.2,36.61s14.25,25.85,20.83,32.81c0,0,2,6.18,13.15-4.24,0,0,5.79-3.48-2.71-11.59,0,0-7.41-4.22-10.08-14.85,0,0-2.62-36.41,6.24-46.25l2.62-15.75s-10.74-3.06-18.85,4.66-35.52,38.22-35.52,38.22v4.25L588,1087.23S594.43,1083.83,596.36,1087.23Z"/><path class="r" d="M666.82,387.71c-.23-1.17-.5-2.32-.79-3.44"/><path class="r" d="M668,396.73a.57.57,0,0,0,0-.13"/><path d="M703.15,414.42s10.19,2.14,16.81,7.35h11.75a140.86,140.86,0,0,0-28.56-22.34A48.57,48.57,0,0,0,703.15,414.42Z"/><path class="s" d="M651.62,426.81a51.69,51.69,0,0,0,.34,5.53l.67-1.45C676.48,482,723,465.12,723,465.12c23.45-18,8.62-34.2.82-40.53a38,38,0,0,0-3.9-2.82c-4.77-3.76-11.4-5.92-14.73-6.83-1.29-.36-2.08-.52-2.08-.52-.28-2.08-.45-4-.52-5.79v0a41,41,0,0,1,.52-9.18,20.76,20.76,0,0,1,4.44-10.19l-3.76,2.41-5.06,3.26a11.3,11.3,0,0,1-3,1.73c-3.53,1.44-9.92,2.37-17.9-3.76l-2.71-2-9-6.52a28.73,28.73,0,0,1,.66,3.32.43.43,0,0,1,0,.05A57,57,0,0,1,668,396.6l.56-.25-.12.09-.14.09-.16.12,0,0,0,0h0l-.06,0s1.51,8.25-1.43,15.65c-.07.6-.15,1.2-.24,1.82l-.79.38c-2.35,4.29-6.52,7.93-13.82,8.95C651.63,424.59,651.6,425.68,651.62,426.81Z"/><line class="b" x1="651.9" y1="421.11" x2="650.51" y2="421.77"/><path class="t" d="M651.69,423.53c7.3-1,11.47-4.66,13.82-8.95a21.87,21.87,0,0,0,1-2.2,114.29,114.29,0,0,0,1-15.32c-1.28.9-3.6,2.57-6.29,4.8l-.3.26c-.75.66-1.5,1.35-2.24,2.05a32.56,32.56,0,0,0-6.77,16.94C651.8,421.89,651.73,422.7,651.69,423.53Z"/><path class="b" d="M667.5,397.06v-.23a67.06,67.06,0,0,0-.67-9.07"/><path class="u" d="M762.19,424.07s18.71-1.19,31.19,14.91,94.28,52.93,94.28,52.93L962,421.77s-8.32,21.49,17.27,26.49l-78.51,77.19a12.44,12.44,0,0,1-14.26,2.63l-109.3-51.26Z"/><path class="u" d="M583.08,377.61a14.74,14.74,0,0,1,2.37,7.23c-.08,9.87,2.36,11.83,7.91,13.62S601,404.82,603,408.9s3.18,7.75,11,6.85,10.27,5.47,10.27,5.47c2,4.91,5.68,6.29,8.8,6.46h0a15,15,0,0,0,5.55-.85A9.14,9.14,0,0,1,641,426h0a12.05,12.05,0,0,1,5.51,0,29.48,29.48,0,0,0,5.08.86,8.2,8.2,0,0,0,6.83-2.82c3.67-3.83,6.28-4.73,6.28-4.73,7.18-.82,7.42-1.63,10.6-7.34,2.72-4.87.51-17.44-.2-21-.12-.61-.2-1-.2-1-10.69-6.72-14.2-13.35-16.72-16.77s-3.27-10.28-3.27-10.28,1.15-4.81-2.36-18.76,3.34-17.87,3.34-17.87A45.06,45.06,0,0,0,671,303.11c4.41,2.69,18.44-1.79,18.44-1.79,11.33-.74,16.88,5.46,13.13,18s4.08,14.52,4.08,14.52-8.41,2-8.89,4.08,3.18.73,3.18.73a29.15,29.15,0,0,1,15.41-2.77c5.14,4.49,2.69,7.5.82,8.56-2.2,3.19-5,4.41.81,11.67s-.5,10-.5,10c-12.08,6.42,0,14,0,14L704.28,390c-.16.58-.31,1.15-.45,1.7-1.85,7.39-2,12.87-1.21,16.93a0,0,0,0,1,0,0v0a16.07,16.07,0,0,0,2.6,6.31,12.39,12.39,0,0,0,9.48,5.19,6.9,6.9,0,0,1,3.83,1.14s1.2,2.61,5.31,3.32h0a14.84,14.84,0,0,0,5-.06,26.26,26.26,0,0,1,4.77-.39c4.25.07,5.37,1.53,5.37,1.53,3.85,3,7,3.29,9.3,2.58a10.36,10.36,0,0,0,5.62-4.87,1.43,1.43,0,0,1,.1-.16c.57-.93,3.76-5.62,9.28-4.24,6.12,1.53,12.24-.77,13.2-8.61s4.4-9.76,10-9.57,14.35-2.87,13-10.71,3.63-9.19,3.63-9.19c14.35-10.71,3.07-18.94,3.07-18.94s-3.83-5.74-.39-10.71,4.79-11.67,0-17.6A18.17,18.17,0,0,1,802,320.83c2.87-11.86.76-12.06-8.42-15.31s-8.61-10.33-8.61-10.33C787,278.35,773.26,277,773.26,277a19.21,19.21,0,0,1-19.52-7.46c-7.84-10.52-13.58-10.14-21.81-10.14S720.44,256,720.44,256c-10.34-8.8-20.84-4-25.05-2.29a13.08,13.08,0,0,1-8,.57c-17.41-3.64-23.53,11.48-23.53,11.48-11.48,3.06-8.8,15.88-8.8,15.88-2.3-5-9.76-8.81-13.2-4s-3.83,6.31-17,8.8-13,14.73-12.64,19.13-.76,10.91-4.78,11.29-6.89,4.4-6.51,11.1-5.16,7.46-5.16,7.46C584.42,344,586.43,349,586.43,349c0,.25,2.12,3.35-3.35,11A14.44,14.44,0,0,0,583.08,377.61Z"/><path class="u" d="M654.45,338.42c10.33-5.82,24,.44,24,.44,3.56,1.27,2.73-1.84,2.73-1.84s-10.61-6.93-18-4.26C656.1,335.35,654.54,338.24,654.45,338.42Z"/><path class="g" d="M652.58,344.14c3.51,13.95,2.36,18.76,2.36,18.76s.74,6.85,3.27,10.28,6,10.05,16.72,16.77c0,0,.08.35.2,1l2.71,2c8,6.13,14.37,5.2,17.9,3.76a11.3,11.3,0,0,0,3-1.73l5.06-3.26c.14-.55.29-1.12.45-1.7l13.21-9.81s-12.08-7.55,0-14c0,0,6.29-2.78.5-10s-3-8.48-.81-11.67c1.87-1.06,4.32-4.07-.82-8.56A29.15,29.15,0,0,0,701,338.67s-3.67,1.39-3.18-.73,8.89-4.08,8.89-4.08-7.83-2-4.08-14.52-1.8-18.76-13.13-18c0,0-14,4.48-18.44,1.79a45.06,45.06,0,0,1-15.09,23.16S649.07,330.19,652.58,344.14Zm23.63,30.62a3.83,3.83,0,0,0,4.35.76c2.83-1.06,10.72-3.33,18.05.34a5.27,5.27,0,0,0,4,.37s-4.4,7.38-13.19,8.09S676.21,374.76,676.21,374.76Zm-21.76-36.34c.09-.18,1.65-3.07,8.79-5.66,7.38-2.67,18,4.26,18,4.26s.83,3.11-2.73,1.84C678.5,338.86,664.78,332.6,654.45,338.42Z"/><path class="u" d="M676.21,374.76s4.4,10.27,13.2,9.56,13.19-8.09,13.19-8.09a5.27,5.27,0,0,1-4-.37c-7.33-3.67-15.22-1.4-18.05-.34A3.83,3.83,0,0,1,676.21,374.76Z"/><path class="v" d="M686.33,377.25h7.11A6.2,6.2,0,0,1,686.33,377.25Z"/></g></svg>