<svg xmlns="http://www.w3.org/2000/svg" width="675.39" height="1133.69" viewBox="0 0 675.39 1133.69"><defs><style>.a{isolation:isolate;}.b{fill:#515151;}.c,.p,.s{fill:none;}.c,.d,.e,.f,.g,.p,.q,.r,.t,.u{stroke:#1d1d1b;stroke-miterlimit:10;}.e,.v{fill:#1d1d1b;}.f{fill:#3b3b3b;}.g,.w{fill:#fff;}.h,.i,.l,.m,.q,.t{fill:#bc5417;}.i,.j,.k,.m{mix-blend-mode:multiply;}.j,.m{opacity:0.5;}.l{mix-blend-mode:screen;}.n{fill:#b1b1b1;}.o{fill:#040505;}.p,.q,.r{stroke-width:0.75px;}.u{fill:#070707;}</style></defs><g class="a"><ellipse class="b" cx="234.26" cy="1061.33" rx="218.7" ry="62.71"/><path class="c" d="M239.61,184.28a70.9,70.9,0,0,0-12.74,14.31"/><path class="d" d="M209.29,212.25a17.67,17.67,0,0,0,6.49-1,10.68,10.68,0,0,1,2.79-1h0l.55-.84c.43-.67.88-1.32,1.33-2A33.92,33.92,0,0,1,209.29,212.25ZM186.77,467.06c-17.63,21.67-12.09,102.31,7.56,151.69s6,110.86,6,110.86a193,193,0,0,0,32,12.83,178.14,178.14,0,0,0,66.38,7c29-2.45,47.24-11.24,47.24-11.24a26.09,26.09,0,0,0,8.08-1.38c23.85-8.23,24.68-50.53,24.68-50.53,9.57-53.93-1.52-171.85-4.53-177.4s0-14.61,0-14.61h9.57l-7.56-74.07c-6.56-34.78,3.53-121.46,3.53-121.46V240.8C374.25,209.56,360.14,208,360.14,208l-9.54-1-16.19-1.7c3.47,2.64,6.66,5.21,9.51,7.57,1.89,1.58,3.62,3.07,5.19,4.42l2.36,2.07c.51.47,1,.9,1.47,1.32l.8.73c.82.74,1.52,1.39,2.12,1.94.23.23.44.42.63.6.6.56,1,1,1.27,1.21l.11.11.15.14L351,238.66l17.09,8.08h0l.91.43V285l-2.1,6.15,0,0-9.07,26.52-8.43-4.34-.12-.07-2.17-1.11-77.93-45.8L201.19,381h0l-3.76,6.72,30.38-1.38c21.61-.51,32.09-.31,36.84.11l9.59-4c13.93-15.2,22.09-13.93,33.64-17.6l.6-.19c11.14-3.37,16.71-.79,16.71-.79l-3.8,2c-2,7.18-5.49,7-5.49,7-19.85,6.89-12.38,11.26-12.38,11.26,6.47,3.66,34.85,3.9,34.85,3.9l3.63-6.32s2.07,11.9,0,17.35c0,0-4.22,1.91-6.35,1.19a47.65,47.65,0,0,1,0,6.17,3.89,3.89,0,0,1-2.61,3.32s-1.66,8.55-5.93,8.79c0,0-.31,4.67-6.92,6.25l-25.59,44.93,0,.07-.42.72c-.06.12-.13.23-.19.33l-3.87,6.8-.09-.05L255.2,459.11l-43.73-23.29c-6.56,8.56-38.3,17.12-38.3,17.12Z"/><path class="e" d="M144.37,429.83h61.68l-3.71-2.2,53.93-3.71,21.34-1.46,2.51.14c0-.29.08-.59.11-.91v-.05a1.25,1.25,0,0,0,0-.19,19,19,0,0,0-.18-4.69l-14.78-.57s-16.59-19.36.4-27.85l0,0c.35-.05,3.7-.75,2-1.35a14,14,0,0,0-3.06-.49c-4.75-.42-15.23-.62-36.84-.11l-30.38,1.38h-.24l-34.08,1.56,29.18-86.6,22.12,54.57L201.19,381,269.14,266.4l-.49-.28-9.25,15.36L243.48,306l-32-28.43,7.84-23.21-22.54-2.93s.8-2,2.32-5.4c.14-.31.3-.64.45-1,.7-1.54,1.53-3.32,2.47-5.29.36-.72.73-1.48,1.11-2.27.76-1.55,1.59-3.21,2.49-4.94.31-.57.6-1.15.91-1.75l1-1.87c.62-1.16,1.26-2.35,1.94-3.55,2.67-4.83,5.73-10,9.12-15.14a10.68,10.68,0,0,0-2.79,1,17.67,17.67,0,0,1-6.49,1h0c-14.29,3.81-32.81,3.05-32.81,3.05s-10.15-2.54-13.52,6.76c0,0-29.56,57.44-37.17,182.43C125.78,404.49,120.73,429.83,144.37,429.83Z"/><polygon class="c" points="163.1 389.32 197.18 387.76 197.43 387.75 201.07 381.2 201.18 381.03 201.18 381.02 201.19 381.01 214.4 357.29 192.28 302.72 163.1 389.32"/><path class="f" d="M219.3,254.35l-7.84,23.21,32,28.43,15.92-24.51c-18.65-27.57-26.29-48.32-28-63.79-.13-1.13-.22-2.24-.29-3.32,0-.53-.06-1.06-.07-1.58s0-1,0-1.56c0-1.32,0-2.59.08-3.83,0-1,.13-1.92.24-2.83a38.12,38.12,0,0,1,7.91-19.79,124,124,0,0,0-12.32,13.81.13.13,0,0,0-.05.06,36.5,36.5,0,0,0-2.21,4,12.51,12.51,0,0,1-4.15,4.77c-.45.67-.9,1.32-1.33,2l-.55.84h0c-3.39,5.15-6.45,10.31-9.12,15.14-.67,1.21-1.32,2.39-1.94,3.55l-1,1.87c-1.23,2.37-2.37,4.61-3.4,6.69-.38.79-.74,1.53-1.11,2.27-.94,2-1.77,3.75-2.47,5.29-.15.34-.31.67-.45,1-1.52,3.39-2.32,5.4-2.32,5.4Z"/><path class="c" d="M239.61,184.28c.75-.67,1.49-1.3,2.2-1.89l.35-.31c3.14-2.6,5.85-4.55,7.35-5.61l.55-.38s0,0,.07,0h0l0,0a.05.05,0,0,0,0,0l.19-.14.16-.11.14-.1a7,7,0,0,0-.65.29,4.51,4.51,0,0,0-.54.27A32,32,0,0,0,239.61,184.28Z"/><path class="c" d="M239.19,184.78c.87-.82,1.74-1.62,2.62-2.39-.71.59-1.45,1.22-2.2,1.89Z"/><path class="c" d="M220.46,207.4a12.51,12.51,0,0,0,4.15-4.77,36.5,36.5,0,0,1,2.21-4C224.6,201.51,222.47,204.44,220.46,207.4Z"/><path class="g" d="M231.35,217.69c1.76,15.47,9.4,36.22,28,63.79l9.25-15.36.49.28,77.93,45.8a1.33,1.33,0,0,0,.05-.19,123.07,123.07,0,0,0-20.34-103.9c-1.4-1.82-2.25-2.77-2.25-2.77H310.8a44.54,44.54,0,0,1,4.54,3.3h0a50.48,50.48,0,0,1,6.51,6.28c.19.23.39.46.57.69a35.56,35.56,0,0,1,3.38,4.86c.15.26.3.53.44.8a25.1,25.1,0,0,1,1.5,3.29,3.43,3.43,0,0,1,.16.45c.11.29.2.59.3.88s.14.45.19.67c.17.6.31,1.19.42,1.8a6.86,6.86,0,0,1,.12.68c0,.1,0,.21.05.31,0,.26.07.52.09.76s.05.45.06.68a20.3,20.3,0,0,1-.53,6.28,17.45,17.45,0,0,1-.63,2.15c-.08.24-.17.48-.27.73-.18.49-.39,1-.61,1.46a30.78,30.78,0,0,1-2.11,3.73c-.32.5-.69,1-1.07,1.5l-.59.77c-.39.51-.83,1-1.28,1.53s-.91,1-1.43,1.55q-1.5,1.56-3.31,3.13c-.61.52-1.24,1-1.9,1.58-.34.26-.68.52-1,.79,0,0-54.4,19.67-82.26-40Z"/><path class="g" d="M366.86,251.42s.26,38.23,0,39.75L369,285V247.18l-18-8.52L358,225.45l-9.7,13Z"/><path class="f" d="M291.16,179.24a164.94,164.94,0,0,1,33.37,26.1S363,248.07,347.12,312a1.33,1.33,0,0,1-.05.19l2.17,1.11.12.07,8.43,4.34,9.07-26.52s1.19-6.22,1.2-6.23c.25-1.52,0-38.22,0-38.22l-18.23-7.65L358,225.45a277.46,277.46,0,0,0-23.61-20.11C323.77,197.21,304.56,185.21,291.16,179.24Z"/><line class="c" x1="279.66" y1="421.67" x2="280.23" y2="421.69"/><path class="h" d="M642.29,191.27s-1.36,19.06-18.15,20.46-5.45-20.46-5.45-20.46Z"/><path class="i" d="M642.29,191.27s-1.36,19.06-18.15,20.46-5.45-20.46-5.45-20.46Z"/><path class="h" d="M631.77,182.16,632,182c1.78-1,3.51-2.2,5.23-3.35.64-.43,1.29-.84,1.93-1.28.26-.18.52-.35.8-.52,1.23-.75,1.64,0,2,.93s.48,1.87.87,2.71a6.83,6.83,0,0,1,.47,1.31c.29,1.16-1.25,1.54-2,1.83l-.23.09a22.22,22.22,0,0,0-2.94,3.84c-.83,1.41-2,3.95,0,5a8.54,8.54,0,0,0,5.29.37,38.27,38.27,0,0,0,4.93-1.25l.3-.1c1.26-.61,2.51-1.24,3.74-1.92l.32-.18,0,0a13.84,13.84,0,0,0,3-3.22,6.82,6.82,0,0,0,.42-4.63c-.58-3.13-2-6-2.93-9.06a31.86,31.86,0,0,0-1.48-4.14,5.69,5.69,0,0,0-4.42-2.88,14.86,14.86,0,0,0-5.76,1c-2.13,3.5-8.76,5.53-10.91,9C629.57,177.25,632.81,180.38,631.77,182.16Z"/><g class="j"><path class="h" d="M631.77,182.16,632,182c1.78-1,3.51-2.2,5.23-3.35.64-.43,1.29-.84,1.93-1.28.26-.18.52-.35.8-.52,1.23-.75,1.64,0,2,.93s.48,1.87.87,2.71a6.83,6.83,0,0,1,.47,1.31c.29,1.16-1.25,1.54-2,1.83l-.23.09a22.22,22.22,0,0,0-2.94,3.84c-.83,1.41-2,3.95,0,5a8.54,8.54,0,0,0,5.29.37,38.27,38.27,0,0,0,4.93-1.25l.3-.1c1.26-.61,2.51-1.24,3.74-1.92l.32-.18,0,0a13.84,13.84,0,0,0,3-3.22,6.82,6.82,0,0,0,.42-4.63c-.58-3.13-2-6-2.93-9.06a31.86,31.86,0,0,0-1.48-4.14,5.69,5.69,0,0,0-4.42-2.88,14.86,14.86,0,0,0-5.76,1c-2.13,3.5-8.76,5.53-10.91,9C629.57,177.25,632.81,180.38,631.77,182.16Z"/></g><g class="j"><path class="h" d="M631.77,182.16,632,182c1.78-1,3.51-2.2,5.23-3.35.64-.43,1.29-.84,1.93-1.28.26-.18.52-.35.8-.52,1.23-.75,1.64,0,2,.93s.48,1.87.87,2.71a6.83,6.83,0,0,1,.47,1.31c.29,1.16-1.25,1.54-2,1.83l-.23.09a22.22,22.22,0,0,0-2.94,3.84c-.83,1.41-2,3.95,0,5a4.82,4.82,0,0,0,1,.37,4.78,4.78,0,0,1,2-1.86c2.14-1.13,4.36-2.14,6.52-3.22,2.32-1.16,4.64-2.32,7-3.44a.13.13,0,0,1,.2.08,4.23,4.23,0,0,1-.12,3.09,7.48,7.48,0,0,0,1-1.34,6.82,6.82,0,0,0,.42-4.63c-.58-3.13-2-6-2.93-9.06a31.86,31.86,0,0,0-1.48-4.14,5.69,5.69,0,0,0-4.42-2.88,14.86,14.86,0,0,0-5.76,1c-2.13,3.5-8.76,5.53-10.91,9C629.57,177.25,632.81,180.38,631.77,182.16Z"/></g><path class="h" d="M654.84,183.52l0,0a14.28,14.28,0,0,0,3-3.22,6.89,6.89,0,0,0,.42-4.63c-.58-3.13-2-6-2.93-9.06a30.5,30.5,0,0,0-1.49-4.14,5.67,5.67,0,0,0-4.42-2.88,15,15,0,0,0-5.75,1c-2.13,3.51-8.76,5.54-10.92,9-1.08,1.75,2.16,4.88,1.13,6.66l.23-.14c1.79-1,3.51-2.2,5.23-3.35.64-.43,1.3-.84,1.93-1.28l.8-.52c1.23-.75,1.65,0,2,.93s.49,1.87.87,2.71a7.61,7.61,0,0,1,.48,1.31c.28,1.15-1.26,1.54-2,1.83a30.22,30.22,0,0,0-5.42,2.65c-2.42,1.6-4.81,4.17-4.94,7.22s2.95,4.29,5.46,3.45a86.39,86.39,0,0,0,8.11-3.48c2.66-1.21,5.32-2.42,7.87-3.84Z"/><g class="k"><path class="h" d="M658.28,175.65c-.58-3.13-2-6-2.93-9.06a30.5,30.5,0,0,0-1.49-4.14,6.12,6.12,0,0,0-3-2.58,5.32,5.32,0,0,1,1.91,1.78,25.28,25.28,0,0,1,1.93,4.43c.58,1.46,1.22,2.92,1.73,4.41a17.7,17.7,0,0,1,1.19,8.2,9.37,9.37,0,0,1-1.08,3.29,8,8,0,0,0,1.34-1.7A6.89,6.89,0,0,0,658.28,175.65Z"/></g><path class="h" d="M651.35,180.94l0,0a13.69,13.69,0,0,0,3-3.23,6.8,6.8,0,0,0,.42-4.62c-.58-3.14-2-6-2.93-9.06a32.54,32.54,0,0,0-1.48-4.15A5.7,5.7,0,0,0,646,157a15,15,0,0,0-5.76,1c-2.13,3.51-4.5,6.87-6.66,10.36-1.08,1.74-2.09,3.54-3.13,5.32l.24-.14c1.79-1.05,3.51-2.2,5.23-3.35.64-.44,1.29-.85,1.93-1.28.26-.18.52-.36.8-.52,1.23-.75,1.64,0,2,.93s.48,1.87.87,2.71a6.37,6.37,0,0,1,.47,1.31c.29,1.15-1.25,1.54-2,1.83a29.81,29.81,0,0,0-5.41,2.65c-2.43,1.6-4.82,4.17-4.94,7.21s2.94,4.3,5.45,3.46c2.8-.95,5.43-2.27,8.12-3.48s5.31-2.43,7.87-3.84Z"/><path class="i" d="M654.78,173.07c-.58-3.14-2-6-2.93-9.06a32.54,32.54,0,0,0-1.48-4.15A5.7,5.7,0,0,0,646,157a15,15,0,0,0-5.76,1c-.05.08-.1.16-.14.24a15.9,15.9,0,0,1,1.79-.22c3-.2,6.13.36,7.82,3.06a36.64,36.64,0,0,1,2.07,4.5,40.33,40.33,0,0,1,2,5,10.82,10.82,0,0,1,.51,4.82,12.48,12.48,0,0,1-1.63,4.19c-.09.16-.18.32-.28.47a9.29,9.29,0,0,0,2-2.36A6.8,6.8,0,0,0,654.78,173.07Z"/><path class="i" d="M633.57,184a40.37,40.37,0,0,1,7.79-7,26.78,26.78,0,0,1,4.43-2.78,15,15,0,0,1,2.81-1,11.42,11.42,0,0,1-4.21-.12c-1.79-.54-1.48-3.13-1.89-4.58-.3-1.05-.76-2.21-.23-3.26a10.68,10.68,0,0,1,2.68-3.08c1.45-1.25,3-2.33,4.59-3.46A5.26,5.26,0,0,0,646,157a15,15,0,0,0-5.76,1c-2.13,3.51-4.5,6.87-6.66,10.36-1.08,1.74-2.09,3.54-3.13,5.32l.24-.14c1.79-1.05,3.51-2.2,5.23-3.35.64-.44,1.29-.85,1.93-1.28.26-.18.52-.36.8-.52,1.23-.75,1.64,0,2,.93s.48,1.87.87,2.71a6.37,6.37,0,0,1,.47,1.31c.29,1.15-1.25,1.54-2,1.83a29.81,29.81,0,0,0-5.41,2.65c-2.43,1.6-4.82,4.17-4.94,7.21a3.32,3.32,0,0,0,1.49,3A14.13,14.13,0,0,1,633.57,184Z"/><path class="h" d="M642.16,163.26c17.76-16,30.28-28.67,24.14-32-3.61-2-31.24,22.63-43.21,36s-17,31.6-17,31.6L584.54,213.9c3.51,13.49,17.76,22.62,17.76,22.62l21.06-25.28a5.81,5.81,0,0,0,1.17-.12v.12a15.2,15.2,0,0,0,8-5.29l0,0h0c3.94-4.81,4.25-6.3,4.61-8.71.33-2.26,12.26-9.16,12.38-9.21,3-1.32,6.78-5.16,7.36-6.75,1.59-4.42,2.21-7.92-3.35-6.91a76.64,76.64,0,0,0-11,3.75c-2.15-.34-6-1-7.05-1.66C634,175.52,638.09,166.94,642.16,163.26Z"/><path class="l" d="M615.34,181.1a95.41,95.41,0,0,1,6.69-9.86c2.32-3.06,4.77-6,7.37-8.84,6.12-6.63,13-12.39,19.67-18.48,3.26-3,6.54-5.91,9.93-8.75.75-.64,1.49-1.33,2.24-2-9.43,5.93-28.69,23.51-38.15,34.06-12,13.34-17,31.6-17,31.6L584.54,213.9q.15.58.33,1.17c7.8-5.18,15.65-10.28,23.15-15.87A85.17,85.17,0,0,1,615.34,181.1Z"/><path class="m" d="M653.55,174.32a76.64,76.64,0,0,0-11,3.75c-2.15-.34-6-1-7.05-1.66a.38.38,0,0,1-.12-.1,1.76,1.76,0,0,0,.8,1.2,8,8,0,0,0,5.76.8c1.65-.29,3.18-.89,4.79-1.34a8.47,8.47,0,0,1,3.31-.4c2.52.35,3,3.22,2.28,5.3-.92,2.8-3.59,4.55-6,6.06-1.45.92-2.84,1.94-4.3,2.86-.93.6-1.89,1.17-2.85,1.74a13,13,0,0,0-2.5,1.64c-1.3,1.23-2,2.91-3,4.37a21.35,21.35,0,0,1-3.54,4,15.2,15.2,0,0,1-7.81,3.83,22.5,22.5,0,0,1-9.08-.81c.65,2.25-.88,4.32-2.42,5.85-2,2-4.3,3.88-6.48,5.74-2.68,2.27-5.43,4.47-7.93,6.93a30.8,30.8,0,0,1-4.14,3.72,52.91,52.91,0,0,0,9.9,8.73l21.06-25.28a5.81,5.81,0,0,0,1.17-.12v.12a15.2,15.2,0,0,0,8-5.29l0,0h0c3.94-4.81,4.25-6.3,4.61-8.71.33-2.26,12.26-9.16,12.38-9.21,3-1.32,6.78-5.16,7.36-6.75C658.49,176.81,659.11,173.31,653.55,174.32Z"/><path class="m" d="M666.69,131.49a2.17,2.17,0,0,1,.29.94c.27,2.44-1.14,4.9-2.55,6.77a67.14,67.14,0,0,1-5.86,6.07c-3.11,3.17-6,6.52-9.2,9.64s-6.34,5.72-9.33,8.77a32.58,32.58,0,0,0-4.1,4.69,16.15,16.15,0,0,0-2.17,5.11,15.68,15.68,0,0,0-.46,2.89c0,.58-.09.69.56.74a11.81,11.81,0,0,0,1.19,0,15.25,15.25,0,0,0,1.77-.21,5.89,5.89,0,0,1-1.3-.5c-1.5-.89,2.56-9.47,6.63-13.15C659.51,147.62,671.85,135.18,666.69,131.49Z"/><path class="n" d="M197.18,387.76h.24l30.38-1.38c21.61-.51,32.09-.31,36.84.11l9.59-4c13.93-15.2,22.09-13.93,33.64-17.6l.6-.19c11.14-3.37,16.71-.79,16.71-.79l-3.8,2c-2,7.18-5.49,7-5.49,7-19.85,6.89-12.38,11.26-12.38,11.26,6.47,3.66,34.85,3.9,34.85,3.9l3.63-6.32,31-54-23.6-14.38-.12-.07-2.12-1.3L270,265l-.83,1.4L201.19,381h0l-.11.17Z"/><path class="n" d="M255.33,458.58l34.51,18.51c.85-1.46,3-4.38,4.75-7.31.06-.11.13-.21.19-.33s.28-.48.42-.72l25.62-45c-2.84-.12-31.37-1.75-40.06-2.24l-2.51-.14-76.57,9Z"/><path class="n" d="M320.18,424.85l-25.62,45c9.1-15.59,26.24-45,25.84-45Z"/><path d="M264.64,386.48a14,14,0,0,1,3.06.49l6.53-4.46Z"/><path class="h" d="M265.3,416.19l8,4.37a3.51,3.51,0,0,1,.83.71c1,1,5.51-.64,6.06.18a.36.36,0,0,1,.05.19v.05l38.8,1.94,1.79.09-.64,1.13c6.61-1.58,6.92-6.25,6.92-6.25,4.27-.24,5.93-8.79,5.93-8.79a3.89,3.89,0,0,0,2.61-3.32,47.65,47.65,0,0,0,0-6.17c2.13.72,6.35-1.19,6.35-1.19,2.07-5.45,0-17.35,0-17.35l-3.63,6.32s-28.38-.24-34.85-3.9c0,0-7.47-4.37,12.38-11.26,0,0,3.52.14,5.49-7l3.8-2s-5.57-2.58-16.71.79l-.6.19c-11.55,3.67-19.71,2.4-33.64,17.6L267.7,387l-2,1.35,0,0C248.71,396.83,265.3,416.19,265.3,416.19Z"/><path class="o" d="M613.7,236.29s2.23-3.78-2.18-10.84l-6.73,8.08,8.91,2.76"/><path class="p" d="M298.78,749.43c.09-3.12.1-5.63,0-7.43"/><path class="p" d="M232.4,742.44l.17-.44"/><path class="q" d="M227.22,838.38c3.12,24.75,9.62,53.77,21.74,86.48q1.74,4.71,3.63,9.52s3.2,15.49,1.3,49.25c-.29,5.3-.71,11-1.3,17.26l-3.27,49.22s8.34,26.37,30.68,6.2V940.57s3.88-33.34,8.13-72.92c4.75-44.23,9.93-96.25,10.65-118.22a178.14,178.14,0,0,1-66.38-7C231,746.68,220,781.06,227.22,838.38Z"/><path class="q" d="M178.07,1028.07,249,924.86c-12.12-32.71-18.62-61.73-21.74-86.48-8.68,118.28-38.8,117.25-38.8,117.25L185.36,974C175,985.53,178.07,1028.07,178.07,1028.07Z"/><path class="p" d="M227.22,838.38c.76-10.27,1.35-21.45,1.75-33.6"/><path class="q" d="M288.13,867.65c34.75-53.28,58.85-112.45,66-130.84a26.09,26.09,0,0,1-8.08,1.38s-18.29,8.79-47.24,11.24C298.06,771.4,292.88,823.42,288.13,867.65Z"/><path class="p" d="M356.28,731.05s-.75,2-2.18,5.76"/><path class="r" d="M241.27,1070.23c23.45,45.1,44.2,0,44.2,0L280,983.63v72.68c-22.34,20.17-30.68-6.2-30.68-6.2l3.27-49.22c.59-6.21,1-12,1.3-17.26Z"/><path class="r" d="M166.39,982.81c2.26,4-3.15,27.43-13.08,42.77s16.65,30.2,24.34,38.33c0,0,2.27,7.22,15.36-5,0,0,6.76-4.07-3.17-13.54,0,0-8.65-4.93-11.77-17.35,0,0-3.07-42.54,7.29-54l3.06-18.4s-12.55-3.57-22,5.45-41.49,44.65-41.49,44.65v5l31.76-27.89S164.14,978.84,166.39,982.81Z"/><path class="s" d="M248.71,165.55c-.27-1.37-.58-2.71-.92-4"/><path class="s" d="M250.06,176.09a.71.71,0,0,0,0-.15"/><path d="M291.16,196.76s11.9,2.5,19.64,8.58h13.73a164.94,164.94,0,0,0-33.37-26.1A56.71,56.71,0,0,0,291.16,196.76Z"/><path class="t" d="M231,211.23a61.53,61.53,0,0,0,.39,6.46l.79-1.69c27.86,59.66,82.26,40,82.26,40,27.39-21.06,10.07-40,1-47.35a43.88,43.88,0,0,0-4.55-3.3c-5.58-4.39-13.32-6.91-17.21-8-1.51-.42-2.43-.6-2.43-.6-.33-2.43-.53-4.68-.61-6.77v0a47.67,47.67,0,0,1,.61-10.73c1-5.65,3-9.41,5.19-11.9l-4.4,2.81L286,174a13.14,13.14,0,0,1-3.54,2c-4.12,1.69-11.59,2.77-20.91-4.39l-3.17-2.3-10.48-7.62a32,32,0,0,1,.77,3.88s0,0,0,.06a68.47,68.47,0,0,1,1.32,10.33,7,7,0,0,1,.65-.29l-.14.1-.16.11-.19.14a.05.05,0,0,1,0,0l0,0h0s0,0-.07,0,1.76,9.64-1.67,18.28c-.09.7-.18,1.41-.28,2.13l-.93.44c-2.74,5-7.61,9.27-16.14,10.46C231,208.64,230.93,209.91,231,211.23Z"/><line class="c" x1="231.28" y1="204.57" x2="229.66" y2="205.34"/><path class="u" d="M231,207.4c8.53-1.19,13.4-5.44,16.14-10.46a24,24,0,0,0,1.21-2.57,134.55,134.55,0,0,0,1.12-17.9c-1.5,1.06-4.21,3-7.35,5.61l-.35.31c-.88.77-1.75,1.57-2.62,2.39a38.12,38.12,0,0,0-7.91,19.79C231.17,205.48,231.08,206.43,231,207.4Z"/><path class="c" d="M249.51,176.47v-.26a79.06,79.06,0,0,0-.78-10.6"/><path class="v" d="M360.14,208s21.85-1.39,36.44,17.42,110.14,61.84,110.14,61.84l86.8-82s-9.73,25.12,20.18,30.95L522,326.47a14.55,14.55,0,0,1-16.66,3.08l-127.7-59.89Z"/><path class="v" d="M150.88,153.75c2.58,3.47,2.77,8.45,2.77,8.45-.1,11.53,2.76,13.82,9.24,15.91s9,7.43,11.25,12.2,3.72,9.05,12.86,8,12,6.39,12,6.39c2.37,5.74,6.64,7.35,10.28,7.55h0a17.67,17.67,0,0,0,6.49-1,10.68,10.68,0,0,1,2.79-1h0a14,14,0,0,1,6.44,0,34.27,34.27,0,0,0,5.94,1,9.57,9.57,0,0,0,8-3.29c4.29-4.48,7.34-5.53,7.34-5.53,8.39-1,8.67-1.9,12.39-8.57,3.17-5.69.59-20.38-.24-24.55-.14-.71-.23-1.12-.23-1.12-12.49-7.85-16.59-15.6-19.54-19.59s-3.82-12-3.82-12,1.35-5.62-2.75-21.92S236,93.77,236,93.77c14-11,17.63-27.06,17.63-27.06,5.15,3.14,21.54-2.09,21.54-2.09,13.24-.86,19.72,6.38,15.34,21s4.77,17,4.77,17-9.83,2.29-10.39,4.76,3.72.86,3.72.86a34,34,0,0,1,18-3.24c6,5.25,3.14,8.76,1,10-2.57,3.73-5.82,5.15.95,13.64s-.59,11.73-.59,11.73c-14.11,7.5,0,16.32,0,16.32l-15.43,11.46c-.19.68-.36,1.34-.53,2-2.16,8.64-2.33,15-1.41,19.78a.08.08,0,0,1,0,0v0a18.74,18.74,0,0,0,3,7.37,14.48,14.48,0,0,0,11.07,6.07,8.08,8.08,0,0,1,4.48,1.33s1.4,3.05,6.2,3.88h0a17.54,17.54,0,0,0,5.86-.07,31.35,31.35,0,0,1,5.57-.46c5,.08,6.27,1.79,6.27,1.79,4.5,3.46,8.12,3.84,10.87,3,4.38-1.3,6.57-5.69,6.57-5.69a1,1,0,0,1,.11-.18c.67-1.09,4.39-6.57,10.84-5,7.15,1.79,14.3-.9,15.43-10.06s5.14-11.4,11.62-11.18,16.77-3.35,15.2-12.51,4.24-10.74,4.24-10.74c16.77-12.51,3.59-22.12,3.59-22.12s-4.48-6.71-.46-12.52,5.6-13.63,0-20.56a21.25,21.25,0,0,1-4.46-15c3.35-13.85.89-14.09-9.84-17.88S386.7,57.46,386.7,57.46c2.46-19.68-13.63-21.24-13.63-21.24a22.46,22.46,0,0,1-22.81-8.72c-9.16-12.29-15.86-11.84-25.48-11.84s-13.42-4-13.42-4C299.28,1.36,287,6.94,282.09,9a15.3,15.3,0,0,1-9.39.67C252.36,5.38,245.21,23,245.21,23c-13.41,3.58-10.28,18.55-10.28,18.55-2.69-5.82-11.41-10.29-15.42-4.69S215,44.27,199.62,47.18s-15.21,17.21-14.77,22.35-.88,12.74-5.58,13.19-8.05,5.14-7.61,13-6,8.71-6,8.71c-13.2,10.06-10.85,16-10.85,16,0,.29,2.48,3.91-3.91,12.86A16.87,16.87,0,0,0,150.88,153.75Z"/><path class="v" d="M234.26,108c12.07-6.79,28.1.52,28.1.52,4.16,1.48,3.19-2.15,3.19-2.15s-12.4-8.1-21-5C236.19,104.38,234.37,107.75,234.26,108Z"/><path class="h" d="M232.08,114.65c4.1,16.3,2.75,21.92,2.75,21.92s.87,8,3.82,12,7,11.74,19.54,19.59c0,0,.09.41.23,1.12l3.17,2.3c9.32,7.16,16.79,6.08,20.91,4.39a13.14,13.14,0,0,0,3.54-2l5.91-3.81c.17-.64.34-1.3.53-2l15.43-11.46s-14.11-8.82,0-16.32c0,0,7.35-3.25.59-11.73s-3.52-9.91-.95-13.64c2.18-1.24,5.05-4.75-1-10a34,34,0,0,0-18,3.24s-4.29,1.62-3.72-.86,10.39-4.76,10.39-4.76-9.15-2.29-4.77-17-2.1-21.91-15.34-21c0,0-16.39,5.23-21.54,2.09,0,0-3.62,16.1-17.63,27.06C236,93.77,228,98.35,232.08,114.65Zm27.6,35.77a4.48,4.48,0,0,0,5.09.89c3.3-1.24,12.52-3.89,21.08.4a6.17,6.17,0,0,0,4.67.43s-5.14,8.62-15.41,9.45S259.68,150.42,259.68,150.42ZM234.26,108c.11-.21,1.93-3.58,10.27-6.61,8.62-3.12,21,5,21,5s1,3.63-3.19,2.15C262.36,108.48,246.33,101.17,234.26,108Z"/><path class="v" d="M259.68,150.42s5.14,12,15.43,11.17,15.41-9.45,15.41-9.45a6.17,6.17,0,0,1-4.67-.43c-8.56-4.29-17.78-1.64-21.08-.4A4.48,4.48,0,0,1,259.68,150.42Z"/><path class="w" d="M271.5,153.33h8.32A7.27,7.27,0,0,1,271.5,153.33Z"/></g></svg>